<?xml version="1.0" encoding="UTF-8" standalone="no"?>

<svg
   width="210mm"
   height="297mm"
   viewBox="0 0 210 297"
   version="1.1"
   id="svg391"
   inkscape:version="1.2.2 (732a01da63, 2022-12-09)"
   sodipodi:docname="1.svg"
   xmlns:inkscape="http://www.inkscape.org/namespaces/inkscape"
   xmlns:sodipodi="http://sodipodi.sourceforge.net/DTD/sodipodi-0.dtd"
   xmlns="http://www.w3.org/2000/svg"
   xmlns:svg="http://www.w3.org/2000/svg">
  <sodipodi:namedview
     id="namedview393"
     pagecolor="#ffffff"
     bordercolor="#000000"
     borderopacity="0.25"
     inkscape:showpageshadow="2"
     inkscape:pageopacity="0.0"
     inkscape:pagecheckerboard="0"
     inkscape:deskcolor="#d1d1d1"
     inkscape:document-units="mm"
     showgrid="false"
     inkscape:zoom="0.72515432"
     inkscape:cx="397.15684"
     inkscape:cy="561.94935"
     inkscape:window-width="2560"
     inkscape:window-height="1001"
     inkscape:window-x="-9"
     inkscape:window-y="-9"
     inkscape:window-maximized="1"
     inkscape:current-layer="layer1" />
  <defs
     id="defs388" />
  <g
     inkscape:label="레이어 1"
     inkscape:groupmode="layer"
     id="layer1">
    <path
       style="font-style:normal;font-variant:normal;font-weight:normal;font-stretch:normal;font-size:64px;line-height:125%;font-family:'Arev Sans';-inkscape-font-specification:'Arev Sans';text-align:start;writing-mode:lr-tb;text-anchor:start;display:inline;fill:#000000;fill-opacity:1;stroke:none;stroke-width:0.264583px;stroke-linecap:butt;stroke-linejoin:miter;stroke-opacity:1"
       d="m 26.015018,107.74091 v -1.00046 c -6e-6,-0.78823 -0.170883,-2.19383 -0.51263,-4.2168 -0.154346,-0.95359 -0.407905,-1.94578 -0.760677,-2.976558 -0.358295,-1.047299 -0.733121,-1.868609 -1.124479,-2.463932 -0.303173,-0.451985 -0.664218,-0.677983 -1.083138,-0.677995 -0.474048,1.2e-5 -0.804777,0.181913 -0.992188,0.545704 -0.170878,0.336251 -0.256317,0.702809 -0.256315,1.099674 -2e-6,0.837856 0.30041,1.595776 0.901237,2.273767 h -1.405599 c -0.48507,-0.744136 -0.727605,-1.529617 -0.727604,-2.356449 -1e-6,-0.865398 0.231509,-1.543392 0.694531,-2.033985 0.479556,-0.507105 1.061087,-0.760664 1.744596,-0.760677 0.881941,1.3e-5 1.570959,0.363815 2.067058,1.091407 0.562234,0.821321 1.030766,1.819019 1.405599,2.993098 0.264576,0.854396 0.487818,1.799726 0.669726,2.836006 0.181894,-1.03628 0.405136,-1.98161 0.669727,-2.836006 0.352769,-1.146518 0.821302,-2.144216 1.405599,-2.993098 0.496084,-0.727592 1.185102,-1.091394 2.067057,-1.091407 0.683495,1.3e-5 1.265027,0.253572 1.744596,0.760677 0.463008,0.490593 0.694518,1.168587 0.694531,2.033985 -1.3e-5,0.826832 -0.242548,1.612313 -0.727604,2.356449 h -1.405599 c 0.600813,-0.677991 0.901225,-1.435911 0.901237,-2.273767 -1.2e-5,-0.396865 -0.08545,-0.763423 -0.256315,-1.099674 -0.187425,-0.363791 -0.518154,-0.545692 -0.992187,-0.545704 -0.418935,1.2e-5 -0.77998,0.22601 -1.083138,0.677995 -0.391373,0.595323 -0.766199,1.416633 -1.124479,2.463932 -0.352787,1.030778 -0.606345,2.022968 -0.760677,2.976558 -0.341762,2.02297 -0.512638,3.42857 -0.512631,4.2168 v 1.00046 h -1.240234"
       id="text2421" />
    <switch
       style="font-style:normal;font-variant:normal;font-weight:normal;font-stretch:normal;font-size:16px;line-height:125%;font-family:'DejaVu Sans';-inkscape-font-specification:'DejaVu Sans';text-align:center;writing-mode:lr-tb;text-anchor:middle;display:inline;fill:#000000;fill-opacity:1;stroke:none;stroke-width:1px;stroke-linecap:butt;stroke-linejoin:miter;stroke-opacity:1"
       id="switch130"
       transform="matrix(0.26458333,0,0,0.26458333,9.0072708,82.557977)">
      <text
         xml:space="preserve"
         style="font-style:normal;font-variant:normal;font-weight:normal;font-stretch:normal;line-height:0%;font-family:'DejaVu Sans';-inkscape-font-specification:'DejaVu Sans';text-align:center;writing-mode:lr-tb;text-anchor:middle;fill:#000000;fill-opacity:1;stroke:none;stroke-width:1px;stroke-linecap:butt;stroke-linejoin:miter;stroke-opacity:1"
         x="66.957031"
         y="122.36287"
         id="text2519-bs"
         systemLanguage="bs"><tspan
           sodipodi:role="line"
           id="tspan2521-bs"
           x="66.957031"
           y="122.36287"
           style="font-size:16px;line-height:1.25">Ovan</tspan></text>
      <text
         xml:space="preserve"
         style="font-style:normal;font-variant:normal;font-weight:normal;font-stretch:normal;line-height:0%;font-family:'DejaVu Sans';-inkscape-font-specification:'DejaVu Sans';text-align:center;writing-mode:lr-tb;text-anchor:middle;fill:#000000;fill-opacity:1;stroke:none;stroke-width:1px;stroke-linecap:butt;stroke-linejoin:miter;stroke-opacity:1"
         x="66.957031"
         y="122.36287"
         id="text2519"><tspan
           sodipodi:role="line"
           id="tspan2521"
           x="66.957031"
           y="122.36287"
           style="font-size:16px;line-height:1.25">Aries</tspan></text>
    </switch>
  </g>
</svg>
