<?xml version="1.0" encoding="UTF-8" standalone="no"?>
<!-- Created with Inkscape (http://www.inkscape.org/) -->

<svg
   width="210mm"
   height="297mm"
   viewBox="0 0 210 297"
   version="1.1"
   id="svg1140"
   inkscape:version="1.2.2 (732a01da63, 2022-12-09)"
   sodipodi:docname="10.svg"
   xmlns:inkscape="http://www.inkscape.org/namespaces/inkscape"
   xmlns:sodipodi="http://sodipodi.sourceforge.net/DTD/sodipodi-0.dtd"
   xmlns="http://www.w3.org/2000/svg"
   xmlns:svg="http://www.w3.org/2000/svg">
  <sodipodi:namedview
     id="namedview1142"
     pagecolor="#ffffff"
     bordercolor="#000000"
     borderopacity="0.25"
     inkscape:showpageshadow="2"
     inkscape:pageopacity="0.0"
     inkscape:pagecheckerboard="0"
     inkscape:deskcolor="#d1d1d1"
     inkscape:document-units="mm"
     showgrid="false"
     inkscape:zoom="0.72515432"
     inkscape:cx="397.15684"
     inkscape:cy="561.94935"
     inkscape:window-width="2560"
     inkscape:window-height="1001"
     inkscape:window-x="-9"
     inkscape:window-y="-9"
     inkscape:window-maximized="1"
     inkscape:current-layer="layer1" />
  <defs
     id="defs1137" />
  <g
     inkscape:label="레이어 1"
     inkscape:groupmode="layer"
     id="layer1">
    <path
       style="font-style:normal;font-variant:normal;font-weight:normal;font-stretch:normal;font-size:64px;line-height:125%;font-family:'Arev Sans';-inkscape-font-specification:'Arev Sans';text-align:start;writing-mode:lr-tb;text-anchor:start;display:inline;fill:#000000;fill-opacity:1;stroke:none;stroke-width:0.264583px;stroke-linecap:butt;stroke-linejoin:miter;stroke-opacity:1"
       d="m 107.98757,128.79832 c -0.0992,-0.14882 -0.19293,-0.30592 -0.28112,-0.47129 -0.44649,-0.83784 -0.66973,-1.76113 -0.66972,-2.76985 v -0.69454 c -1e-5,-0.98115 -0.0579,-1.72253 -0.17364,-2.22415 -0.17639,-0.77169 -0.39412,-1.15754 -0.65318,-1.15755 -0.26459,1e-5 -0.63115,0.49335 -1.09968,1.48001 -0.36932,0.77722 -0.55397,1.60405 -0.55397,2.48047 v 2.07533 h -1.24023 v -2.65411 c -1e-5,-0.97564 -0.0717,-1.71702 -0.21498,-2.22415 -0.22049,-0.77169 -0.6587,-1.15754 -1.31465,-1.15755 h -0.59531 v -1.57097 h 0.69453 c 0.83233,2e-5 1.46899,0.37484 1.90996,1.12448 0.24253,0.41343 0.40514,0.82133 0.48783,1.2237 0.16536,-0.49057 0.38584,-0.915 0.66146,-1.27331 0.55672,-0.71656 1.03903,-1.07485 1.44694,-1.07487 0.39135,2e-5 0.80752,0.37484 1.2485,1.12448 0.23701,0.39689 0.38584,0.80479 0.44648,1.2237 0.11024,0.7662 0.16536,1.4249 0.16537,1.97611 v 0.91777 c -1e-5,0.78825 0.10472,1.46348 0.31419,2.02572 0.20394,-0.44648 0.43545,-0.80201 0.69453,-1.0666 0.24804,-0.25356 0.57877,-0.46302 0.99219,-0.62839 0.33072,-0.13228 0.71381,-0.19843 1.14928,-0.19844 0.36931,1e-5 0.71106,0.0662 1.02526,0.19844 0.3197,0.1323 0.60908,0.32798 0.86817,0.58705 0.25354,0.25356 0.44922,0.5457 0.58704,0.87643 0.13228,0.32522 0.19842,0.66973 0.19844,1.03353 -2e-5,0.35829 -0.0662,0.70004 -0.19844,1.02526 -0.13782,0.33073 -0.3335,0.62287 -0.58704,0.87643 -0.23704,0.23702 -0.52642,0.43271 -0.86817,0.58704 -0.29215,0.1323 -0.66147,0.19844 -1.10794,0.19844 -0.45201,0 -0.87644,-0.0661 -1.27331,-0.19844 -0.40239,-0.13229 -0.77446,-0.33623 -1.11621,-0.61185 -0.0937,0.24254 -0.19293,0.4713 -0.29765,0.68627 -0.24255,0.48507 -0.53193,0.86816 -0.86817,1.14928 -0.43546,0.3638 -0.84061,0.61736 -1.21543,0.76068 -0.452,0.17639 -0.92604,0.26458 -1.42213,0.26458 h -0.46302 v -1.24023 h 0.46302 c 0.36931,0 0.6835,-0.0579 0.94257,-0.17364 0.31971,-0.1378 0.58153,-0.30316 0.78549,-0.49609 0.2315,-0.20946 0.42443,-0.45475 0.57877,-0.73587 0.17638,-0.3197 0.36104,-0.74414 0.55397,-1.27331 m 1.4056,-0.32246 c 0.41341,0.452 0.81304,0.73312 1.1989,0.84336 0.24803,0.0717 0.49332,0.10749 0.73587,0.10749 0.25906,0 0.46852,-0.0358 0.62838,-0.10749 0.17638,-0.0772 0.33348,-0.1819 0.47129,-0.31419 0.13228,-0.13229 0.23977,-0.28939 0.32246,-0.47129 0.0717,-0.15985 0.10748,-0.34451 0.10749,-0.55397 -1e-5,-0.19844 -0.0358,-0.38585 -0.10749,-0.56224 -0.0661,-0.16536 -0.17364,-0.32246 -0.32246,-0.47129 -0.13781,-0.13229 -0.29491,-0.23702 -0.47129,-0.3142 -0.16537,-0.0717 -0.34727,-0.10748 -0.5457,-0.10748 -0.18742,0 -0.3831,0.0358 -0.58704,0.10748 -0.22601,0.0827 -0.39689,0.18743 -0.51263,0.3142 -0.39138,0.44098 -0.6973,0.95085 -0.91778,1.52962"
       id="text2461" />
    <switch
       style="font-style:normal;font-variant:normal;font-weight:normal;font-stretch:normal;font-size:16px;line-height:125%;font-family:'DejaVu Sans';-inkscape-font-specification:'DejaVu Sans';text-align:center;writing-mode:lr-tb;text-anchor:middle;display:inline;fill:#000000;fill-opacity:1;stroke:none;stroke-width:1px;stroke-linecap:butt;stroke-linejoin:miter;stroke-opacity:1"
       id="switch204"
       transform="matrix(0.26458333,0,0,0.26458333,66.526535,48.94173)">
      <text
         xml:space="preserve"
         style="font-style:normal;font-variant:normal;font-weight:normal;font-stretch:normal;line-height:0%;font-family:'DejaVu Sans';-inkscape-font-specification:'DejaVu Sans';text-align:center;writing-mode:lr-tb;text-anchor:middle;fill:#000000;fill-opacity:1;stroke:none;stroke-width:1px;stroke-linecap:butt;stroke-linejoin:miter;stroke-opacity:1"
         x="155.61328"
         y="351.49368"
         id="text2559-bs"
         systemLanguage="bs"><tspan
           sodipodi:role="line"
           id="tspan2561-bs"
           x="155.61328"
           y="351.49368"
           style="font-size:16px;line-height:1.25">Jarac</tspan></text>
      <text
         xml:space="preserve"
         style="font-style:normal;font-variant:normal;font-weight:normal;font-stretch:normal;line-height:0%;font-family:'DejaVu Sans';-inkscape-font-specification:'DejaVu Sans';text-align:center;writing-mode:lr-tb;text-anchor:middle;fill:#000000;fill-opacity:1;stroke:none;stroke-width:1px;stroke-linecap:butt;stroke-linejoin:miter;stroke-opacity:1"
         x="155.61328"
         y="351.49368"
         id="text2559-es"
         systemLanguage="es"><tspan
           sodipodi:role="line"
           id="tspan2561-es"
           x="155.61328"
           y="351.49368"
           style="font-size:16px;line-height:1.25">Capricornio</tspan></text>
      <text
         xml:space="preserve"
         style="font-style:normal;font-variant:normal;font-weight:normal;font-stretch:normal;line-height:0%;font-family:'DejaVu Sans';-inkscape-font-specification:'DejaVu Sans';text-align:center;writing-mode:lr-tb;text-anchor:middle;fill:#000000;fill-opacity:1;stroke:none;stroke-width:1px;stroke-linecap:butt;stroke-linejoin:miter;stroke-opacity:1"
         x="155.61328"
         y="351.49368"
         id="text2559"><tspan
           sodipodi:role="line"
           id="tspan2561"
           x="155.61328"
           y="351.49368"
           style="font-size:16px;line-height:1.25">Capricorn</tspan></text>
    </switch>
  </g>
</svg>
