<?xml version="1.0" encoding="UTF-8" standalone="no"?>
<!-- Created with Inkscape (http://www.inkscape.org/) -->

<svg
   width="210mm"
   height="297mm"
   viewBox="0 0 210 297"
   version="1.1"
   id="svg1292"
   inkscape:version="1.2.2 (732a01da63, 2022-12-09)"
   sodipodi:docname="12.svg"
   xmlns:inkscape="http://www.inkscape.org/namespaces/inkscape"
   xmlns:sodipodi="http://sodipodi.sourceforge.net/DTD/sodipodi-0.dtd"
   xmlns="http://www.w3.org/2000/svg"
   xmlns:svg="http://www.w3.org/2000/svg">
  <sodipodi:namedview
     id="namedview1294"
     pagecolor="#ffffff"
     bordercolor="#000000"
     borderopacity="0.25"
     inkscape:showpageshadow="2"
     inkscape:pageopacity="0.0"
     inkscape:pagecheckerboard="0"
     inkscape:deskcolor="#d1d1d1"
     inkscape:document-units="mm"
     showgrid="false"
     inkscape:zoom="0.72515432"
     inkscape:cx="397.15684"
     inkscape:cy="561.94935"
     inkscape:window-width="2560"
     inkscape:window-height="1001"
     inkscape:window-x="-9"
     inkscape:window-y="-9"
     inkscape:window-maximized="1"
     inkscape:current-layer="layer1" />
  <defs
     id="defs1289" />
  <g
     inkscape:label="레이어 1"
     inkscape:groupmode="layer"
     id="layer1">
    <path
       style="font-style:normal;font-variant:normal;font-weight:normal;font-stretch:normal;font-size:64px;line-height:125%;font-family:'Arev Sans';-inkscape-font-specification:'Arev Sans';text-align:start;writing-mode:lr-tb;text-anchor:start;display:inline;fill:#000000;fill-opacity:1;stroke:none;stroke-width:0.264583px;stroke-linecap:butt;stroke-linejoin:miter;stroke-opacity:1"
       d="m 89.578876,123.57148 h -2.59623 c -0.0662,1.09141 -0.2949,2.1084 -0.68626,3.05098 -0.35829,0.86541 -0.87644,1.69774 -1.55443,2.497 h -1.71152 c 1.00872,-0.98116 1.71427,-1.97335 2.11667,-2.97656 0.33072,-0.8158 0.5264,-1.67294 0.58704,-2.57142 h -2.45566 v -1.24023 h 2.45566 c -0.0606,-0.89848 -0.25632,-1.75562 -0.58704,-2.57142 -0.40791,-1.00321 -1.11346,-1.99815 -2.11667,-2.98483 h 1.71152 c 0.67248,0.79927 1.19062,1.63436 1.55443,2.50527 0.39687,0.94258 0.62562,1.95958 0.68626,3.05098 h 2.59623 c 0.0606,-1.0914 0.28938,-2.1084 0.68626,-3.05098 0.36379,-0.87091 0.88193,-1.706 1.55443,-2.50527 h 1.71152 c -1.00322,0.98668 -1.70878,1.98162 -2.11667,2.98483 -0.33074,0.8158 -0.52642,1.67294 -0.58704,2.57142 h 2.37298 v 1.24023 h -2.37298 c 0.0606,0.89848 0.2563,1.75562 0.58704,2.57142 0.40238,1.00321 1.10793,1.9954 2.11667,2.97656 h -1.71152 c -0.67801,-0.79926 -1.19615,-1.63159 -1.55443,-2.497 -0.39137,-0.95912 -0.62013,-1.97611 -0.68626,-3.05098"
       id="text2465" />
    <switch
       style="font-style:normal;font-variant:normal;font-weight:normal;font-stretch:normal;font-size:16px;line-height:125%;font-family:'DejaVu Sans';-inkscape-font-specification:'DejaVu Sans';text-align:center;writing-mode:lr-tb;text-anchor:middle;display:inline;fill:#000000;fill-opacity:1;stroke:none;stroke-width:1px;stroke-linecap:butt;stroke-linejoin:miter;stroke-opacity:1"
       id="switch188"
       transform="matrix(0.26458333,0,0,0.26458333,0.20758449,45.575237)">
      <text
         xml:space="preserve"
         style="font-style:normal;font-variant:normal;font-weight:normal;font-stretch:normal;line-height:0%;font-family:'DejaVu Sans';-inkscape-font-specification:'DejaVu Sans';text-align:center;writing-mode:lr-tb;text-anchor:middle;fill:#000000;fill-opacity:1;stroke:none;stroke-width:1px;stroke-linecap:butt;stroke-linejoin:miter;stroke-opacity:1"
         x="332.48438"
         y="351.49368"
         id="text2551-bs"
         systemLanguage="bs"><tspan
           sodipodi:role="line"
           id="tspan2553-bs"
           x="332.48438"
           y="351.49368"
           style="font-size:16px;line-height:1.25">Ribe</tspan></text>
      <text
         xml:space="preserve"
         style="font-style:normal;font-variant:normal;font-weight:normal;font-stretch:normal;line-height:0%;font-family:'DejaVu Sans';-inkscape-font-specification:'DejaVu Sans';text-align:center;writing-mode:lr-tb;text-anchor:middle;fill:#000000;fill-opacity:1;stroke:none;stroke-width:1px;stroke-linecap:butt;stroke-linejoin:miter;stroke-opacity:1"
         x="332.48438"
         y="351.49368"
         id="text2551-es"
         systemLanguage="es"><tspan
           sodipodi:role="line"
           id="tspan2553-es"
           x="332.48438"
           y="351.49368"
           style="font-size:16px;line-height:1.25">Piscis</tspan></text>
      <text
         xml:space="preserve"
         style="font-style:normal;font-variant:normal;font-weight:normal;font-stretch:normal;line-height:0%;font-family:'DejaVu Sans';-inkscape-font-specification:'DejaVu Sans';text-align:center;writing-mode:lr-tb;text-anchor:middle;fill:#000000;fill-opacity:1;stroke:none;stroke-width:1px;stroke-linecap:butt;stroke-linejoin:miter;stroke-opacity:1"
         x="332.48438"
         y="351.49368"
         id="text2551"><tspan
           sodipodi:role="line"
           id="tspan2553"
           x="332.48438"
           y="351.49368"
           style="font-size:16px;line-height:1.25">Pisces</tspan></text>
    </switch>
  </g>
</svg>
