<?xml version="1.0" encoding="UTF-8" standalone="no"?>
<!-- Created with Inkscape (http://www.inkscape.org/) -->

<svg
   width="210mm"
   height="297mm"
   viewBox="0 0 210 297"
   version="1.1"
   id="svg464"
   inkscape:version="1.2.2 (732a01da63, 2022-12-09)"
   sodipodi:docname="2.svg"
   xmlns:inkscape="http://www.inkscape.org/namespaces/inkscape"
   xmlns:sodipodi="http://sodipodi.sourceforge.net/DTD/sodipodi-0.dtd"
   xmlns="http://www.w3.org/2000/svg"
   xmlns:svg="http://www.w3.org/2000/svg">
  <sodipodi:namedview
     id="namedview466"
     pagecolor="#ffffff"
     bordercolor="#000000"
     borderopacity="0.25"
     inkscape:showpageshadow="2"
     inkscape:pageopacity="0.0"
     inkscape:pagecheckerboard="0"
     inkscape:deskcolor="#d1d1d1"
     inkscape:document-units="mm"
     showgrid="false"
     inkscape:zoom="0.72515432"
     inkscape:cx="396.46733"
     inkscape:cy="561.25984"
     inkscape:window-width="1529"
     inkscape:window-height="1030"
     inkscape:window-x="947"
     inkscape:window-y="17"
     inkscape:window-maximized="0"
     inkscape:current-layer="layer1" />
  <defs
     id="defs461" />
  <g
     inkscape:label="레이어 1"
     inkscape:groupmode="layer"
     id="layer1">
    <path
       style="font-style:normal;font-variant:normal;font-weight:normal;font-stretch:normal;font-size:64px;line-height:125%;font-family:'Arev Sans';-inkscape-font-specification:'Arev Sans';text-align:start;writing-mode:lr-tb;text-anchor:start;display:inline;fill:#000000;fill-opacity:1;stroke:none;stroke-width:0.264583px;stroke-linecap:butt;stroke-linejoin:miter;stroke-opacity:1"
       d="m 88.102253,78.480131 c -0.148831,-0.352768 -0.361048,-0.66696 -0.636654,-0.942578 -0.25356,-0.253548 -0.564996,-0.46301 -0.934309,-0.628385 -0.319707,-0.143305 -0.686263,-0.214963 -1.099675,-0.214974 V 75.45396 c 0.567751,1.2e-5 1.091404,0.101987 1.570964,0.305924 0.501602,0.214986 0.948086,0.515398 1.339453,0.901237 0.396872,0.391374 0.70004,0.840614 0.909505,1.347721 0.148823,0.352788 0.361042,0.66698 0.636654,0.942579 0.253552,0.253567 0.564991,0.463029 0.934309,0.628385 0.319699,0.143324 0.686256,0.214982 1.099675,0.214974 0.396867,8e-6 0.763426,-0.07165 1.099674,-0.214974 0.352769,-0.14882 0.664205,-0.358281 0.93431,-0.628385 0.275598,-0.275599 0.487815,-0.589791 0.636654,-0.942579 0.209452,-0.507107 0.51262,-0.956347 0.909505,-1.347721 0.391351,-0.385839 0.837835,-0.686251 1.339453,-0.901237 0.479544,-0.203937 1.0032,-0.305912 1.570964,-0.305924 v 1.240234 c -0.413425,1.1e-5 -0.779984,0.07167 -1.099675,0.214974 -0.369326,0.165375 -0.680762,0.374837 -0.93431,0.628385 -0.275619,0.275618 -0.487836,0.58981 -0.636653,0.942578 -0.209474,0.501615 -0.512641,0.950855 -0.909505,1.347722 -0.192935,0.192933 -0.443738,0.388614 -0.752409,0.587044 0.308671,0.198445 0.559474,0.394126 0.752409,0.587044 0.396864,0.396882 0.700031,0.846122 0.909505,1.347722 0.203938,0.496098 0.305914,1.02802 0.305924,1.595768 -1e-5,0.551218 -0.101986,1.074872 -0.305924,1.570963 -0.214985,0.50712 -0.518152,0.95636 -0.909505,1.347722 -0.391372,0.385851 -0.837857,0.686263 -1.339454,0.901237 -0.479565,0.203949 -1.00322,0.305924 -1.570963,0.305924 -0.595318,0 -1.118973,-0.101975 -1.570964,-0.305924 -0.52366,-0.237023 -0.970142,-0.537435 -1.339453,-0.901237 -0.391366,-0.391362 -0.694534,-0.840602 -0.909505,-1.347722 -0.203951,-0.496091 -0.305927,-1.019745 -0.305924,-1.570963 -3e-6,-0.567748 0.101973,-1.09967 0.305924,-1.595768 0.220483,-0.534673 0.52365,-0.983913 0.909505,-1.347722 0.237019,-0.225991 0.490577,-0.421672 0.760677,-0.587044 -0.275611,-0.165357 -0.529172,-0.361038 -0.760677,-0.587044 -0.385855,-0.374818 -0.689022,-0.824058 -0.909505,-1.347722 m 4.919596,2.769857 c -0.336248,-0.143309 -0.702807,-0.214967 -1.099674,-0.214974 -0.396883,7e-6 -0.763439,0.07166 -1.099675,0.214974 -0.341759,0.154347 -0.653195,0.363808 -0.934309,0.628386 -0.286637,0.297661 -0.498854,0.611854 -0.636654,0.942578 -0.14332,0.34727 -0.214979,0.722096 -0.214974,1.124479 -5e-6,0.385854 0.07165,0.752412 0.214974,1.099674 0.1378,0.330732 0.350017,0.644924 0.636654,0.942578 0.281114,0.264585 0.59255,0.474047 0.934309,0.628386 0.336236,0.143317 0.702792,0.214975 1.099675,0.214974 0.396867,1e-6 0.763426,-0.07166 1.099674,-0.214974 0.341744,-0.154339 0.653183,-0.363801 0.93431,-0.628386 0.286623,-0.297654 0.49884,-0.611846 0.636654,-0.942578 0.143306,-0.347262 0.214963,-0.71382 0.214974,-1.099674 -1.1e-5,-0.402383 -0.07167,-0.777209 -0.214974,-1.124479 -0.137814,-0.330724 -0.350031,-0.644917 -0.636654,-0.942578 -0.281127,-0.264578 -0.592566,-0.474039 -0.93431,-0.628386"
       id="text2433" />
    <switch
       style="font-style:normal;font-variant:normal;font-weight:normal;font-stretch:normal;font-size:16px;line-height:125%;font-family:'DejaVu Sans';-inkscape-font-specification:'DejaVu Sans';text-align:center;writing-mode:lr-tb;text-anchor:middle;display:inline;fill:#000000;fill-opacity:1;stroke:none;stroke-width:1px;stroke-linecap:butt;stroke-linejoin:miter;stroke-opacity:1"
       id="switch138"
       transform="matrix(0.26458333,0,0,0.26458333,50.81254,62.863542)">
      <text
         xml:space="preserve"
         style="font-style:normal;font-variant:normal;font-weight:normal;font-stretch:normal;line-height:0%;font-family:'DejaVu Sans';-inkscape-font-specification:'DejaVu Sans';text-align:center;writing-mode:lr-tb;text-anchor:middle;fill:#000000;fill-opacity:1;stroke:none;stroke-width:1px;stroke-linecap:butt;stroke-linejoin:miter;stroke-opacity:1"
         x="155.79297"
         y="122.36287"
         id="text2523-bs"
         systemLanguage="bs"><tspan
           sodipodi:role="line"
           id="tspan2525-bs"
           x="155.79297"
           y="122.36287"
           style="font-size:16px;line-height:1.25">Bik</tspan></text>
      <text
         xml:space="preserve"
         style="font-style:normal;font-variant:normal;font-weight:normal;font-stretch:normal;line-height:0%;font-family:'DejaVu Sans';-inkscape-font-specification:'DejaVu Sans';text-align:center;writing-mode:lr-tb;text-anchor:middle;fill:#000000;fill-opacity:1;stroke:none;stroke-width:1px;stroke-linecap:butt;stroke-linejoin:miter;stroke-opacity:1"
         x="155.79297"
         y="122.36287"
         id="text2523-es"
         systemLanguage="es"><tspan
           sodipodi:role="line"
           id="tspan2525-es"
           x="155.79297"
           y="122.36287"
           style="font-size:16px;line-height:1.25">Tauro</tspan></text>
      <text
         xml:space="preserve"
         style="font-style:normal;font-variant:normal;font-weight:normal;font-stretch:normal;line-height:0%;font-family:'DejaVu Sans';-inkscape-font-specification:'DejaVu Sans';text-align:center;writing-mode:lr-tb;text-anchor:middle;fill:#000000;fill-opacity:1;stroke:none;stroke-width:1px;stroke-linecap:butt;stroke-linejoin:miter;stroke-opacity:1"
         x="155.79297"
         y="122.36287"
         id="text2523"><tspan
           sodipodi:role="line"
           id="tspan2525"
           x="155.79297"
           y="122.36287"
           style="font-size:16px;line-height:1.25">Taurus</tspan></text>
    </switch>
  </g>
</svg>
