<?xml version="1.0" encoding="UTF-8" standalone="no"?>
<!-- Created with Inkscape (http://www.inkscape.org/) -->

<svg
   width="210mm"
   height="297mm"
   viewBox="0 0 210 297"
   version="1.1"
   id="svg609"
   inkscape:version="1.2.2 (732a01da63, 2022-12-09)"
   sodipodi:docname="4.svg"
   xmlns:inkscape="http://www.inkscape.org/namespaces/inkscape"
   xmlns:sodipodi="http://sodipodi.sourceforge.net/DTD/sodipodi-0.dtd"
   xmlns="http://www.w3.org/2000/svg"
   xmlns:svg="http://www.w3.org/2000/svg">
  <sodipodi:namedview
     id="namedview611"
     pagecolor="#ffffff"
     bordercolor="#000000"
     borderopacity="0.25"
     inkscape:showpageshadow="2"
     inkscape:pageopacity="0.0"
     inkscape:pagecheckerboard="0"
     inkscape:deskcolor="#d1d1d1"
     inkscape:document-units="mm"
     showgrid="false"
     inkscape:zoom="0.72515432"
     inkscape:cx="397.15684"
     inkscape:cy="561.94935"
     inkscape:window-width="2560"
     inkscape:window-height="1001"
     inkscape:window-x="-9"
     inkscape:window-y="-9"
     inkscape:window-maximized="1"
     inkscape:current-layer="layer1" />
  <defs
     id="defs606" />
  <g
     inkscape:label="레이어 1"
     inkscape:groupmode="layer"
     id="layer1">
    <path
       style="font-style:normal;font-variant:normal;font-weight:normal;font-stretch:normal;font-size:64px;line-height:125%;font-family:'Arev Sans';-inkscape-font-specification:'Arev Sans';text-align:start;writing-mode:lr-tb;text-anchor:start;display:inline;fill:#000000;fill-opacity:1;stroke:none;stroke-width:0.264583px;stroke-linecap:butt;stroke-linejoin:miter;stroke-opacity:1"
       d="m 106.75084,91.728604 c 0.50161,0.319709 0.98392,0.57878 1.44695,0.777214 1.17959,0.512633 2.48873,0.768948 3.9274,0.768945 0.90399,3e-6 1.76113,-0.101972 2.57142,-0.305924 -0.0717,-0.06063 -0.13781,-0.121265 -0.19843,-0.181901 -0.24806,-0.253556 -0.42996,-0.523651 -0.54571,-0.810287 -0.12127,-0.297652 -0.18191,-0.6146 -0.1819,-0.950846 -1e-5,-0.330724 0.0606,-0.644917 0.1819,-0.942578 0.12677,-0.314187 0.30867,-0.584282 0.54571,-0.810287 0.25906,-0.24804 0.5264,-0.429941 0.80201,-0.545703 0.28662,-0.12126 0.60082,-0.181894 0.94258,-0.181901 0.35828,7e-6 0.67247,0.06064 0.94258,0.181901 0.31969,0.143323 0.58703,0.325224 0.80202,0.545703 0.24803,0.253566 0.42993,0.523661 0.5457,0.810287 0.12126,0.297661 0.18189,0.611854 0.1819,0.942578 -10e-6,0.330733 -0.0606,0.647682 -0.1819,0.950846 -0.1323,0.330733 -0.34177,0.614608 -0.62838,0.851628 -0.4024,0.330732 -0.86267,0.606339 -1.3808,0.826823 -1.34497,0.573265 -2.81121,0.859897 -4.3987,0.859895 -1.62609,2e-6 -3.09232,-0.28663 -4.3987,-0.859895 -0.33624,-0.148826 -0.66145,-0.305922 -0.97565,-0.471289 v -1.455209 m 9.02064,0.454753 c 0.14331,0.06064 0.3004,0.09095 0.47129,0.09095 0.17087,4e-6 0.32796,-0.03031 0.47129,-0.09095 0.14882,-0.06614 0.28387,-0.157093 0.40514,-0.272852 0.11024,-0.110239 0.20119,-0.245286 0.27286,-0.405143 0.0606,-0.148824 0.0909,-0.308676 0.0909,-0.479557 -1e-5,-0.16536 -0.0303,-0.322456 -0.0909,-0.471289 -0.0606,-0.143311 -0.1516,-0.278358 -0.27286,-0.405143 -0.10474,-0.104725 -0.23979,-0.195676 -0.40514,-0.272852 -0.14333,-0.06063 -0.30042,-0.09094 -0.47129,-0.09095 -0.17089,7e-6 -0.32798,0.03032 -0.47129,0.09095 -0.14884,0.06615 -0.28388,0.157102 -0.40514,0.272852 -0.11025,0.110248 -0.2012,0.245296 -0.27285,0.405143 -0.0607,0.148833 -0.091,0.305929 -0.091,0.471289 -10e-6,0.170881 0.0303,0.330733 0.091,0.479557 0.0606,0.14332 0.15157,0.278368 0.27285,0.405143 0.10472,0.104735 0.23977,0.195685 0.40514,0.272852 m 2.94349,-4.415234 c -0.50162,-0.319697 -0.98393,-0.578768 -1.44694,-0.777214 -1.17961,-0.512621 -2.48874,-0.768936 -3.92741,-0.768945 -0.904,9e-6 -1.76114,0.101984 -2.57142,0.305924 0.0717,0.06064 0.1378,0.121277 0.19844,0.181901 0.24804,0.253568 0.42994,0.523663 0.5457,0.810287 0.12127,0.297664 0.1819,0.614612 0.1819,0.950846 0,0.330736 -0.0606,0.644928 -0.1819,0.942578 -0.12678,0.314199 -0.30868,0.584294 -0.5457,0.810287 -0.25907,0.248052 -0.52642,0.429953 -0.80202,0.545703 -0.28663,0.121272 -0.60082,0.181905 -0.94257,0.181901 -0.3583,4e-6 -0.67249,-0.06063 -0.94258,-0.181901 -0.31971,-0.143311 -0.58705,-0.325212 -0.80202,-0.545703 -0.24805,-0.253554 -0.42995,-0.523649 -0.54571,-0.810287 -0.12126,-0.29765 -0.1819,-0.611842 -0.1819,-0.942578 0,-0.330721 0.0606,-0.64767 0.1819,-0.950846 0.1323,-0.330721 0.34176,-0.614596 0.62839,-0.851628 0.40239,-0.33072 0.86265,-0.606327 1.3808,-0.826823 1.34496,-0.573253 2.81119,-0.859885 4.39869,-0.859896 1.62608,1.1e-5 3.09231,0.286643 4.3987,0.859896 0.33623,0.148838 0.66145,0.305934 0.97565,0.471289 v 1.455209 m -9.02064,-0.454753 c -0.14332,-0.06063 -0.30041,-0.09094 -0.47128,-0.09095 -0.17089,9e-6 -0.32798,0.03033 -0.4713,0.09095 -0.14883,0.06615 -0.28387,0.157105 -0.40514,0.272852 -0.11024,0.110251 -0.20119,0.245298 -0.27285,0.405143 -0.0606,0.148836 -0.0909,0.308688 -0.0909,0.479557 0,0.165372 0.0303,0.322468 0.0909,0.471289 0.0606,0.143323 0.15158,0.27837 0.27285,0.405143 0.10473,0.104737 0.23978,0.195688 0.40514,0.272852 0.14332,0.06064 0.30041,0.09096 0.4713,0.09095 0.17087,6e-6 0.32796,-0.03031 0.47128,-0.09095 0.14883,-0.06614 0.28388,-0.15709 0.40515,-0.272852 0.11023,-0.110236 0.20118,-0.245284 0.27285,-0.405143 0.0606,-0.148821 0.0909,-0.305917 0.0909,-0.471289 0,-0.170869 -0.0303,-0.330721 -0.0909,-0.479557 -0.0606,-0.143308 -0.15159,-0.278356 -0.27285,-0.405143 -0.10474,-0.104723 -0.23979,-0.195673 -0.40515,-0.272852"
       id="text2445" />
    <switch
       style="font-style:normal;font-variant:normal;font-weight:normal;font-stretch:normal;font-size:16px;line-height:125%;font-family:'DejaVu Sans';-inkscape-font-specification:'DejaVu Sans';text-align:center;writing-mode:lr-tb;text-anchor:middle;display:inline;fill:#000000;fill-opacity:1;stroke:none;stroke-width:1px;stroke-linecap:butt;stroke-linejoin:miter;stroke-opacity:1"
       id="switch154"
       transform="matrix(0.26458333,0,0,0.26458333,24.659732,70.849287)">
      <text
         xml:space="preserve"
         style="font-style:normal;font-variant:normal;font-weight:normal;font-stretch:normal;line-height:0%;font-family:'DejaVu Sans';-inkscape-font-specification:'DejaVu Sans';text-align:center;writing-mode:lr-tb;text-anchor:middle;fill:#000000;fill-opacity:1;stroke:none;stroke-width:1px;stroke-linecap:butt;stroke-linejoin:miter;stroke-opacity:1"
         x="332.43359"
         y="122.36287"
         id="text2531-bs"
         systemLanguage="bs"><tspan
           sodipodi:role="line"
           id="tspan2533-bs"
           x="332.43359"
           y="122.36287"
           style="font-size:16px;line-height:1.25">Rak</tspan></text>
      <text
         xml:space="preserve"
         style="font-style:normal;font-variant:normal;font-weight:normal;font-stretch:normal;line-height:0%;font-family:'DejaVu Sans';-inkscape-font-specification:'DejaVu Sans';text-align:center;writing-mode:lr-tb;text-anchor:middle;fill:#000000;fill-opacity:1;stroke:none;stroke-width:1px;stroke-linecap:butt;stroke-linejoin:miter;stroke-opacity:1"
         x="332.43359"
         y="122.36287"
         id="text2531-es"
         systemLanguage="es"><tspan
           sodipodi:role="line"
           id="tspan2533-es"
           x="332.43359"
           y="122.36287"
           style="font-size:16px;line-height:1.25">Cáncer</tspan></text>
      <text
         xml:space="preserve"
         style="font-style:normal;font-variant:normal;font-weight:normal;font-stretch:normal;line-height:0%;font-family:'DejaVu Sans';-inkscape-font-specification:'DejaVu Sans';text-align:center;writing-mode:lr-tb;text-anchor:middle;fill:#000000;fill-opacity:1;stroke:none;stroke-width:1px;stroke-linecap:butt;stroke-linejoin:miter;stroke-opacity:1"
         x="332.43359"
         y="122.36287"
         id="text2531"><tspan
           sodipodi:role="line"
           id="tspan2533"
           x="332.43359"
           y="122.36287"
           style="font-size:16px;line-height:1.25">Cancer</tspan></text>
    </switch>
  </g>
</svg>
