<?xml version="1.0" encoding="UTF-8" standalone="no"?>
<!-- Created with Inkscape (http://www.inkscape.org/) -->

<svg
   width="210mm"
   height="297mm"
   viewBox="0 0 210 297"
   version="1.1"
   id="svg778"
   inkscape:version="1.2.2 (732a01da63, 2022-12-09)"
   sodipodi:docname="5.svg"
   xmlns:inkscape="http://www.inkscape.org/namespaces/inkscape"
   xmlns:sodipodi="http://sodipodi.sourceforge.net/DTD/sodipodi-0.dtd"
   xmlns="http://www.w3.org/2000/svg"
   xmlns:svg="http://www.w3.org/2000/svg">
  <sodipodi:namedview
     id="namedview780"
     pagecolor="#ffffff"
     bordercolor="#000000"
     borderopacity="0.25"
     inkscape:showpageshadow="2"
     inkscape:pageopacity="0.0"
     inkscape:pagecheckerboard="0"
     inkscape:deskcolor="#d1d1d1"
     inkscape:document-units="mm"
     showgrid="false"
     inkscape:zoom="0.72515432"
     inkscape:cx="397.15684"
     inkscape:cy="561.94935"
     inkscape:window-width="2560"
     inkscape:window-height="1001"
     inkscape:window-x="-9"
     inkscape:window-y="-9"
     inkscape:window-maximized="1"
     inkscape:current-layer="layer1" />
  <defs
     id="defs775" />
  <g
     inkscape:label="레이어 1"
     inkscape:groupmode="layer"
     id="layer1">
    <path
       style="font-style:normal;font-variant:normal;font-weight:normal;font-stretch:normal;font-size:64px;line-height:125%;font-family:'Arev Sans';-inkscape-font-specification:'Arev Sans';text-align:start;writing-mode:lr-tb;text-anchor:start;display:inline;fill:#000000;fill-opacity:1;stroke:none;stroke-width:0.264583px;stroke-linecap:butt;stroke-linejoin:miter;stroke-opacity:1"
       d="m 83.705837,126.63984 c -0.04962,0.19292 -0.07442,0.35278 -0.07441,0.47955 -9e-6,0.19293 0.0248,0.35003 0.07441,0.47129 0.06614,0.14332 0.143307,0.25632 0.23151,0.339 0.09921,0.0937 0.209453,0.16812 0.330729,0.22324 0.121258,0.0551 0.308671,0.0827 0.56224,0.0827 0.225988,0 0.424425,-0.0386 0.595312,-0.11575 0.214963,-0.0937 0.396864,-0.21222 0.545704,-0.35553 l 0.876432,0.87643 c -0.242547,0.23151 -0.562251,0.44097 -0.959115,0.62838 -0.286643,0.13781 -0.63942,0.20671 -1.058333,0.20671 -0.424446,0 -0.766199,-0.0579 -1.02526,-0.17363 -0.297666,-0.1323 -0.545713,-0.29766 -0.744141,-0.4961 -0.220495,-0.22049 -0.385859,-0.46578 -0.496094,-0.73587 -0.110251,-0.27561 -0.165372,-0.59256 -0.165365,-0.95085 -7e-6,-0.39136 0.05787,-0.73311 0.173633,-1.02526 0.418915,-1.03077 0.826814,-1.80798 1.223698,-2.33164 0.496084,-0.65594 0.879179,-1.35322 1.149284,-2.09186 0.121257,-0.32521 0.181891,-0.69452 0.181901,-1.10794 -1e-5,-0.44648 -0.06064,-0.81855 -0.181901,-1.11621 -0.115765,-0.28663 -0.297666,-0.55672 -0.545703,-0.81029 -0.214983,-0.22048 -0.482323,-0.40238 -0.802018,-0.5457 -0.270105,-0.12126 -0.584297,-0.18189 -0.942579,-0.1819 -0.341761,1e-5 -0.655953,0.0606 -0.942578,0.1819 -0.275614,0.11576 -0.542953,0.29766 -0.802018,0.5457 -0.237028,0.22601 -0.418929,0.4961 -0.545703,0.81029 -0.121273,0.29766 -0.181907,0.61461 -0.181901,0.95084 -6e-6,0.3583 0.06063,0.67249 0.181901,0.94258 0.148822,0.32522 0.36104,0.73312 0.636654,1.2237 0.369307,0.64493 0.553964,1.25678 0.553971,1.83555 -7e-6,0.33073 -0.06064,0.64492 -0.181901,0.94257 -0.115762,0.28664 -0.297663,0.55673 -0.545703,0.81029 -0.21498,0.22049 -0.482319,0.40239 -0.802018,0.5457 -0.270101,0.12127 -0.584294,0.1819 -0.942578,0.1819 -0.341758,0 -0.65595,-0.0606 -0.942579,-0.1819 -0.275611,-0.11575 -0.54295,-0.29765 -0.802018,-0.5457 -0.237025,-0.226 -0.418926,-0.49609 -0.545703,-0.81029 -0.121269,-0.29765 -0.181903,-0.61184 -0.181901,-0.94257 -2e-6,-0.33624 0.06063,-0.65319 0.181901,-0.95085 0.115753,-0.28663 0.297654,-0.55672 0.545703,-0.81029 0.214971,-0.22048 0.48231,-0.40238 0.802018,-0.5457 0.270092,-0.12126 0.584285,-0.1819 0.942579,-0.1819 h 0.140559 c -0.187417,-0.42443 -0.281124,-0.92603 -0.281119,-1.50482 -5e-6,-0.53467 0.09095,-1.01423 0.272851,-1.43867 0.198433,-0.46301 0.471284,-0.86815 0.818555,-1.21543 0.34726,-0.34726 0.749646,-0.61735 1.207161,-0.81029 0.429941,-0.18189 0.90123,-0.27284 1.413867,-0.27285 0.540183,1e-5 1.011471,0.091 1.413868,0.27285 0.479547,0.21499 0.881934,0.48508 1.207161,0.81029 0.363791,0.36381 0.636643,0.76896 0.818555,1.21543 0.181889,0.44649 0.27284,0.98117 0.272852,1.60404 -1.2e-5,0.61736 -0.09096,1.14377 -0.272852,1.57923 -0.341765,0.83234 -0.763444,1.59853 -1.265039,2.29857 -0.567761,0.81028 -0.942587,1.54064 -1.124479,2.19108 m -4.150651,-3.39825 c -0.143321,-0.0606 -0.300417,-0.0909 -0.471289,-0.0909 -0.170882,1e-5 -0.327978,0.0303 -0.47129,0.0909 -0.148832,0.0662 -0.283879,0.15711 -0.405143,0.27286 -0.121271,0.12678 -0.212221,0.26183 -0.272851,0.40514 -0.06064,0.14883 -0.09095,0.30868 -0.09095,0.47956 -4e-6,0.16536 0.03031,0.32246 0.09095,0.47129 0.06063,0.14331 0.15158,0.27836 0.272851,0.40514 0.121264,0.11576 0.256311,0.20671 0.405143,0.27285 0.143312,0.0606 0.300408,0.091 0.47129,0.091 0.170872,0 0.327968,-0.0303 0.471289,-0.091 0.148823,-0.0661 0.28387,-0.15709 0.405143,-0.27285 0.121262,-0.12678 0.212212,-0.26183 0.272851,-0.40514 0.06063,-0.14883 0.09094,-0.30593 0.09095,-0.47129 -5e-6,-0.17088 -0.03032,-0.33073 -0.09095,-0.47956 -0.06064,-0.14331 -0.151589,-0.27836 -0.272851,-0.40514 -0.121273,-0.11575 -0.25632,-0.2067 -0.405143,-0.27286"
       id="text2457" />
    <switch
       style="font-style:normal;font-variant:normal;font-weight:normal;font-stretch:normal;font-size:16px;line-height:125%;font-family:'DejaVu Sans';-inkscape-font-specification:'DejaVu Sans';text-align:center;writing-mode:lr-tb;text-anchor:middle;display:inline;fill:#000000;fill-opacity:1;stroke:none;stroke-width:1px;stroke-linecap:butt;stroke-linejoin:miter;stroke-opacity:1"
       id="switch160"
       transform="matrix(0.26458333,0,0,0.26458333,64.101865,74.936561)">
      <text
         xml:space="preserve"
         style="font-style:normal;font-variant:normal;font-weight:normal;font-stretch:normal;line-height:0%;font-family:'DejaVu Sans';-inkscape-font-specification:'DejaVu Sans';text-align:center;writing-mode:lr-tb;text-anchor:middle;fill:#000000;fill-opacity:1;stroke:none;stroke-width:1px;stroke-linecap:butt;stroke-linejoin:miter;stroke-opacity:1"
         x="66.273438"
         y="235.37749"
         id="text2535-bs"
         systemLanguage="bs"><tspan
           sodipodi:role="line"
           id="tspan2537-bs"
           x="66.273438"
           y="235.37749"
           style="font-size:16px;line-height:1.25">Lav</tspan></text>
      <text
         xml:space="preserve"
         style="font-style:normal;font-variant:normal;font-weight:normal;font-stretch:normal;line-height:0%;font-family:'DejaVu Sans';-inkscape-font-specification:'DejaVu Sans';text-align:center;writing-mode:lr-tb;text-anchor:middle;fill:#000000;fill-opacity:1;stroke:none;stroke-width:1px;stroke-linecap:butt;stroke-linejoin:miter;stroke-opacity:1"
         x="66.273438"
         y="235.37749"
         id="text2535"><tspan
           sodipodi:role="line"
           id="tspan2537"
           x="66.273438"
           y="235.37749"
           style="font-size:16px;line-height:1.25">Leo</tspan></text>
    </switch>
  </g>
</svg>
