<?xml version="1.0" encoding="UTF-8" standalone="no"?>
<!-- Created with Inkscape (http://www.inkscape.org/) -->

<svg
   width="210mm"
   height="297mm"
   viewBox="0 0 210 297"
   version="1.1"
   id="svg842"
   inkscape:version="1.2.2 (732a01da63, 2022-12-09)"
   sodipodi:docname="6.svg"
   xmlns:inkscape="http://www.inkscape.org/namespaces/inkscape"
   xmlns:sodipodi="http://sodipodi.sourceforge.net/DTD/sodipodi-0.dtd"
   xmlns="http://www.w3.org/2000/svg"
   xmlns:svg="http://www.w3.org/2000/svg">
  <sodipodi:namedview
     id="namedview844"
     pagecolor="#ffffff"
     bordercolor="#000000"
     borderopacity="0.25"
     inkscape:showpageshadow="2"
     inkscape:pageopacity="0.0"
     inkscape:pagecheckerboard="0"
     inkscape:deskcolor="#d1d1d1"
     inkscape:document-units="mm"
     showgrid="false"
     inkscape:zoom="0.72515432"
     inkscape:cx="397.15684"
     inkscape:cy="561.94935"
     inkscape:window-width="2560"
     inkscape:window-height="1001"
     inkscape:window-x="-9"
     inkscape:window-y="-9"
     inkscape:window-maximized="1"
     inkscape:current-layer="layer1" />
  <defs
     id="defs839" />
  <g
     inkscape:label="레이어 1"
     inkscape:groupmode="layer"
     id="layer1">
    <path
       style="font-style:normal;font-variant:normal;font-weight:normal;font-stretch:normal;font-size:64px;line-height:125%;font-family:'Arev Sans';-inkscape-font-specification:'Arev Sans';text-align:start;writing-mode:lr-tb;text-anchor:start;display:inline;fill:#000000;fill-opacity:1;stroke:none;stroke-width:0.264583px;stroke-linecap:butt;stroke-linejoin:miter;stroke-opacity:1"
       d="m 64.732747,171.65045 c 0.611836,-0.61736 1.080371,-1.32016 1.405599,-2.1084 0.325205,-0.79375 0.487813,-1.63159 0.487823,-2.51354 -1e-5,-0.76619 -0.04686,-1.32291 -0.140557,-1.67018 -0.14333,-0.53467 -0.341768,-0.80202 -0.595313,-0.80202 -0.143327,0 -0.344521,0.25908 -0.603583,0.77721 -0.369324,0.73864 -0.553979,1.56546 -0.553969,2.48047 v 3.83646 m -0.992187,2.28203 c -0.237032,0.12678 -0.479568,0.24529 -0.727604,0.35553 -0.61186,0.2701 -1.278829,0.44373 -2.000912,0.5209 v -1.2485 c 0.545695,-0.0772 1.055569,-0.21773 1.52962,-0.42168 0.341746,-0.14883 0.664207,-0.31971 0.967385,-0.51263 -0.01103,-0.12678 -0.01654,-0.25907 -0.01654,-0.39688 v -7.60677 c -1.1e-5,-0.98115 -0.05789,-1.72254 -0.173635,-2.22415 -0.176395,-0.77169 -0.394126,-1.15754 -0.653188,-1.15755 -0.264594,1e-5 -0.63115,0.49334 -1.099677,1.48001 -0.369319,0.77722 -0.553977,1.60404 -0.553969,2.48047 v 7.03626 h -1.24023 v -7.61504 c -8e-6,-0.97564 -0.05789,-1.71702 -0.173635,-2.22415 -0.170882,-0.77169 -0.38861,-1.15754 -0.653188,-1.15755 -0.264589,1e-5 -0.631148,0.49334 -1.099677,1.48001 -0.369316,0.77722 -0.553974,1.60404 -0.553969,2.48047 v 7.03626 h -1.240234 v -7.61504 c -3e-6,-1.15203 -0.148831,-2.17453 -0.446484,-3.06751 -0.170879,-0.51262 -0.463024,-1.03076 -0.876433,-1.55443 h 1.273308 c 0.214971,0.21499 0.40514,0.47957 0.570505,0.79375 0.187412,0.36382 0.33624,0.77172 0.446484,1.2237 0.165362,-0.49057 0.38585,-0.91501 0.661458,-1.27331 0.556726,-0.71657 1.011479,-1.07485 1.364261,-1.07487 0.391356,2e-5 0.807524,0.37484 1.2485,1.12448 0.170873,0.28665 0.319698,0.69454 0.446484,1.2237 0.165359,-0.49057 0.385845,-0.91501 0.661458,-1.27331 0.556721,-0.71657 1.039035,-1.07485 1.446943,-1.07487 0.391353,2e-5 0.807519,0.37484 1.2485,1.12448 0.237014,0.39689 0.385842,0.80479 0.446484,1.2237 0.08267,0.57879 0.137795,1.23749 0.165365,1.97611 0.110233,-0.22599 0.248039,-0.43821 0.413412,-0.63666 0.402378,-0.47954 0.755155,-0.71932 1.058333,-0.71933 0.440962,1e-5 0.824055,0.43547 1.149286,1.30638 0.358275,0.95912 0.537419,1.98714 0.537433,3.08405 -1.4e-5,1.07487 -0.192937,2.06981 -0.578776,2.98483 -0.418936,0.99219 -0.994955,1.84657 -1.728058,2.56315 -0.231523,0.226 -0.474056,0.43822 -0.727604,0.63665 0.06062,0.25907 0.140549,0.50988 0.239776,0.75241 0.214964,0.52365 0.54845,1.01699 1.000459,1.48001 h -1.604037 c -0.248057,-0.39687 -0.429958,-0.73311 -0.545703,-1.00872 -0.06616,-0.16537 -0.126791,-0.33349 -0.181901,-0.50436"
       id="text2437" />
    <switch
       style="font-style:normal;font-variant:normal;font-weight:normal;font-stretch:normal;font-size:16px;line-height:125%;font-family:'DejaVu Sans';-inkscape-font-specification:'DejaVu Sans';text-align:center;writing-mode:lr-tb;text-anchor:middle;display:inline;fill:#000000;fill-opacity:1;stroke:none;stroke-width:1px;stroke-linecap:butt;stroke-linejoin:miter;stroke-opacity:1"
       id="switch166"
       transform="matrix(0.26458333,0,0,0.26458333,20.187662,119.42214)">
      <text
         xml:space="preserve"
         style="font-style:normal;font-variant:normal;font-weight:normal;font-stretch:normal;line-height:0%;font-family:'DejaVu Sans';-inkscape-font-specification:'DejaVu Sans';text-align:center;writing-mode:lr-tb;text-anchor:middle;fill:#000000;fill-opacity:1;stroke:none;stroke-width:1px;stroke-linecap:butt;stroke-linejoin:miter;stroke-opacity:1"
         x="155.74609"
         y="235.37749"
         id="text2539-bs"
         systemLanguage="bs"><tspan
           sodipodi:role="line"
           id="tspan2541-bs"
           x="155.74609"
           y="235.37749"
           style="font-size:16px;line-height:1.25">Djevica</tspan></text>
      <text
         xml:space="preserve"
         style="font-style:normal;font-variant:normal;font-weight:normal;font-stretch:normal;line-height:0%;font-family:'DejaVu Sans';-inkscape-font-specification:'DejaVu Sans';text-align:center;writing-mode:lr-tb;text-anchor:middle;fill:#000000;fill-opacity:1;stroke:none;stroke-width:1px;stroke-linecap:butt;stroke-linejoin:miter;stroke-opacity:1"
         x="155.74609"
         y="235.37749"
         id="text2539"><tspan
           sodipodi:role="line"
           id="tspan2541"
           x="155.74609"
           y="235.37749"
           style="font-size:16px;line-height:1.25">Virgo</tspan></text>
    </switch>
  </g>
</svg>
