<?xml version="1.0" encoding="UTF-8" standalone="no"?>
<!-- Created with Inkscape (http://www.inkscape.org/) -->

<svg
   width="210mm"
   height="297mm"
   viewBox="0 0 210 297"
   version="1.1"
   id="svg906"
   inkscape:version="1.2.2 (732a01da63, 2022-12-09)"
   sodipodi:docname="7.svg"
   xmlns:inkscape="http://www.inkscape.org/namespaces/inkscape"
   xmlns:sodipodi="http://sodipodi.sourceforge.net/DTD/sodipodi-0.dtd"
   xmlns="http://www.w3.org/2000/svg"
   xmlns:svg="http://www.w3.org/2000/svg">
  <sodipodi:namedview
     id="namedview908"
     pagecolor="#ffffff"
     bordercolor="#000000"
     borderopacity="0.25"
     inkscape:showpageshadow="2"
     inkscape:pageopacity="0.0"
     inkscape:pagecheckerboard="0"
     inkscape:deskcolor="#d1d1d1"
     inkscape:document-units="mm"
     showgrid="false"
     inkscape:zoom="0.72515432"
     inkscape:cx="397.15684"
     inkscape:cy="561.94935"
     inkscape:window-width="2560"
     inkscape:window-height="1001"
     inkscape:window-x="-9"
     inkscape:window-y="-9"
     inkscape:window-maximized="1"
     inkscape:current-layer="layer1" />
  <defs
     id="defs903" />
  <g
     inkscape:label="레이어 1"
     inkscape:groupmode="layer"
     id="layer1">
    <path
       style="font-style:normal;font-variant:normal;font-weight:normal;font-stretch:normal;font-size:64px;line-height:125%;font-family:'Arev Sans';-inkscape-font-specification:'Arev Sans';text-align:start;writing-mode:lr-tb;text-anchor:start;display:inline;fill:#000000;fill-opacity:1;stroke:none;stroke-width:0.264583px;stroke-linecap:butt;stroke-linejoin:miter;stroke-opacity:1"
       d="m 90.499006,166.88884 h -4.721158 v -1.24024 h 2.84427 c -0.19844,-0.25355 -0.363804,-0.52916 -0.496093,-0.82682 -0.203952,-0.46853 -0.305928,-0.96462 -0.305925,-1.48828 -3e-6,-0.54019 0.101973,-1.04455 0.305925,-1.51309 0.214971,-0.48506 0.518138,-0.91225 0.909505,-1.28157 0.391358,-0.36931 0.837843,-0.65594 1.339453,-0.8599 0.479552,-0.19292 1.003205,-0.28938 1.570963,-0.28939 0.595305,10e-6 1.11896,0.0965 1.570964,0.28939 0.523645,0.22601 0.970129,0.51264 1.339453,0.8599 0.391353,0.36932 0.694521,0.79651 0.909505,1.28157 0.203938,0.46854 0.305914,0.9729 0.305925,1.51309 -1.1e-5,0.52366 -0.101987,1.01975 -0.305925,1.48828 -0.132302,0.29766 -0.297667,0.57327 -0.496093,0.82682 h 2.84427 v 1.24024 h -4.729427 v -1.24024 c 0.209452,-0.11575 0.40789,-0.25631 0.595313,-0.42168 0.270086,-0.23701 0.482303,-0.52916 0.636653,-0.87643 0.143307,-0.32521 0.214964,-0.66696 0.214974,-1.02526 -1e-5,-0.3638 -0.07167,-0.7083 -0.214974,-1.03353 -0.148838,-0.32521 -0.361055,-0.61735 -0.636653,-0.87643 -0.25908,-0.23702 -0.570516,-0.4327 -0.93431,-0.58705 -0.314201,-0.13228 -0.68076,-0.19842 -1.099675,-0.19843 -0.396882,10e-6 -0.763439,0.0661 -1.099674,0.19843 -0.347271,0.13782 -0.658707,0.3335 -0.93431,0.58705 -0.275611,0.25908 -0.487831,0.55122 -0.636654,0.87643 -0.143319,0.32523 -0.214979,0.66973 -0.214974,1.03353 -5e-6,0.3583 0.07166,0.70005 0.214974,1.02526 0.148823,0.32522 0.361043,0.61736 0.636654,0.87643 0.170871,0.15986 0.366554,0.30042 0.587044,0.42168 v 1.24024 m -4.721158,3.7207 v -1.24024 h 12.336197 v 1.24024 H 85.777848"
       id="text2429" />
    <switch
       style="font-style:normal;font-variant:normal;font-weight:normal;font-stretch:normal;font-size:16px;line-height:125%;font-family:'DejaVu Sans';-inkscape-font-specification:'DejaVu Sans';text-align:center;writing-mode:lr-tb;text-anchor:middle;display:inline;fill:#000000;fill-opacity:1;stroke:none;stroke-width:1px;stroke-linecap:butt;stroke-linejoin:miter;stroke-opacity:1"
       id="switch172"
       transform="matrix(0.26458333,0,0,0.26458333,27.354541,116.86401)">
      <text
         xml:space="preserve"
         style="font-style:normal;font-variant:normal;font-weight:normal;font-stretch:normal;line-height:0%;font-family:'DejaVu Sans';-inkscape-font-specification:'DejaVu Sans';text-align:center;writing-mode:lr-tb;text-anchor:middle;fill:#000000;fill-opacity:1;stroke:none;stroke-width:1px;stroke-linecap:butt;stroke-linejoin:miter;stroke-opacity:1"
         x="244.08594"
         y="235.37749"
         id="text2543-bs"
         systemLanguage="bs"><tspan
           sodipodi:role="line"
           id="tspan2545-bs"
           x="244.08594"
           y="235.37749"
           style="font-size:16px;line-height:1.25">Vaga</tspan></text>
      <text
         xml:space="preserve"
         style="font-style:normal;font-variant:normal;font-weight:normal;font-stretch:normal;line-height:0%;font-family:'DejaVu Sans';-inkscape-font-specification:'DejaVu Sans';text-align:center;writing-mode:lr-tb;text-anchor:middle;fill:#000000;fill-opacity:1;stroke:none;stroke-width:1px;stroke-linecap:butt;stroke-linejoin:miter;stroke-opacity:1"
         x="244.08594"
         y="235.37749"
         id="text2543"><tspan
           sodipodi:role="line"
           id="tspan2545"
           x="244.08594"
           y="235.37749"
           style="font-size:16px;line-height:1.25">Libra</tspan></text>
    </switch>
  </g>
</svg>
