<?xml version="1.0" encoding="UTF-8" standalone="no"?>
<!-- Created with Inkscape (http://www.inkscape.org/) -->

<svg
   width="210mm"
   height="297mm"
   viewBox="0 0 210 297"
   version="1.1"
   id="svg972"
   inkscape:version="1.2.2 (732a01da63, 2022-12-09)"
   sodipodi:docname="8.svg"
   xmlns:inkscape="http://www.inkscape.org/namespaces/inkscape"
   xmlns:sodipodi="http://sodipodi.sourceforge.net/DTD/sodipodi-0.dtd"
   xmlns="http://www.w3.org/2000/svg"
   xmlns:svg="http://www.w3.org/2000/svg">
  <sodipodi:namedview
     id="namedview974"
     pagecolor="#ffffff"
     bordercolor="#000000"
     borderopacity="0.25"
     inkscape:showpageshadow="2"
     inkscape:pageopacity="0.0"
     inkscape:pagecheckerboard="0"
     inkscape:deskcolor="#d1d1d1"
     inkscape:document-units="mm"
     showgrid="false"
     inkscape:zoom="0.72515432"
     inkscape:cx="397.15684"
     inkscape:cy="561.94935"
     inkscape:window-width="2560"
     inkscape:window-height="1001"
     inkscape:window-x="-9"
     inkscape:window-y="-9"
     inkscape:window-maximized="1"
     inkscape:current-layer="layer1" />
  <defs
     id="defs969" />
  <g
     inkscape:label="레이어 1"
     inkscape:groupmode="layer"
     id="layer1">
    <path
       style="font-style:normal;font-variant:normal;font-weight:normal;font-stretch:normal;font-size:64px;line-height:125%;font-family:'Arev Sans';-inkscape-font-specification:'Arev Sans';text-align:start;writing-mode:lr-tb;text-anchor:start;display:inline;fill:#000000;fill-opacity:1;stroke:none;stroke-width:0.264583px;stroke-linecap:butt;stroke-linejoin:miter;stroke-opacity:1"
       d="m 139.47725,174.18256 c -0.42445,0 -0.7662,-0.0579 -1.02526,-0.17363 -0.29767,-0.1323 -0.54572,-0.29766 -0.74414,-0.49609 -0.2205,-0.22049 -0.38587,-0.46578 -0.4961,-0.73588 -0.11025,-0.27561 -0.16537,-0.59531 -0.16536,-0.95911 v -7.60677 c -1e-5,-0.98116 -0.0579,-1.72254 -0.17364,-2.22416 -0.17639,-0.77169 -0.39412,-1.15754 -0.65319,-1.15755 -0.26459,10e-6 -0.63115,0.49335 -1.09967,1.48001 -0.36932,0.77723 -0.55398,1.60405 -0.55397,2.48047 v 7.03627 h -1.24024 v -7.61504 c 0,-0.97565 -0.0579,-1.71703 -0.17363,-2.22416 -0.17088,-0.77169 -0.38861,-1.15754 -0.65319,-1.15755 -0.26459,10e-6 -0.63114,0.49335 -1.09967,1.48001 -0.36932,0.77723 -0.55398,1.60405 -0.55398,2.48047 v 7.03627 h -1.24023 v -7.61504 c 0,-1.15203 -0.14883,-2.17454 -0.44648,-3.06752 -0.17088,-0.51262 -0.46302,-1.03076 -0.87644,-1.55442 h 1.27331 c 0.21497,0.21498 0.40514,0.47957 0.57051,0.79375 0.18741,0.36381 0.33624,0.77171 0.44648,1.2237 0.16537,-0.49058 0.38585,-0.91501 0.66146,-1.27331 0.55672,-0.71657 1.01148,-1.07486 1.36426,-1.07487 0.39136,1e-5 0.80752,0.37484 1.2485,1.12448 0.17087,0.28664 0.3197,0.69454 0.44649,1.2237 0.16536,-0.49058 0.38584,-0.91501 0.66145,-1.27331 0.55673,-0.71657 1.03904,-1.07486 1.44694,-1.07487 0.39136,1e-5 0.80753,0.37484 1.24851,1.12448 0.23701,0.39688 0.38584,0.80478 0.44648,1.2237 0.11024,0.76619 0.16536,1.4249 0.16537,1.9761 v 8.24343 c -1e-5,0.20946 0.0248,0.36656 0.0744,0.47129 0.0661,0.14331 0.14331,0.25631 0.23151,0.33899 0.0992,0.0937 0.20945,0.16812 0.33073,0.22325 0.12126,0.0551 0.30867,0.0827 0.56224,0.0827 h 0.47956 v -1.07487 l 1.7694,1.69498 -1.7694,1.70326 v -1.08314 h -0.46302"
       id="text2441" />
    <switch
       style="font-style:normal;font-variant:normal;font-weight:normal;font-stretch:normal;font-size:16px;line-height:125%;font-family:'DejaVu Sans';-inkscape-font-specification:'DejaVu Sans';text-align:center;writing-mode:lr-tb;text-anchor:middle;display:inline;fill:#000000;fill-opacity:1;stroke:none;stroke-width:1px;stroke-linecap:butt;stroke-linejoin:miter;stroke-opacity:1"
       id="switch180"
       transform="matrix(0.26458333,0,0,0.26458333,46.92269,119.12652)">
      <text
         xml:space="preserve"
         style="font-style:normal;font-variant:normal;font-weight:normal;font-stretch:normal;line-height:0%;font-family:'DejaVu Sans';-inkscape-font-specification:'DejaVu Sans';text-align:center;writing-mode:lr-tb;text-anchor:middle;fill:#000000;fill-opacity:1;stroke:none;stroke-width:1px;stroke-linecap:butt;stroke-linejoin:miter;stroke-opacity:1"
         x="332.78125"
         y="235.37749"
         id="text2547-bs"
         systemLanguage="bs"><tspan
           sodipodi:role="line"
           id="tspan2549-bs"
           x="332.78125"
           y="235.37749"
           style="font-size:16px;line-height:1.25">Škorpion</tspan></text>
      <text
         xml:space="preserve"
         style="font-style:normal;font-variant:normal;font-weight:normal;font-stretch:normal;line-height:0%;font-family:'DejaVu Sans';-inkscape-font-specification:'DejaVu Sans';text-align:center;writing-mode:lr-tb;text-anchor:middle;fill:#000000;fill-opacity:1;stroke:none;stroke-width:1px;stroke-linecap:butt;stroke-linejoin:miter;stroke-opacity:1"
         x="332.78125"
         y="235.37749"
         id="text2547-es"
         systemLanguage="es"><tspan
           sodipodi:role="line"
           id="tspan2549-es"
           x="332.78125"
           y="235.37749"
           style="font-size:16px;line-height:1.25">Escorpio</tspan></text>
      <text
         xml:space="preserve"
         style="font-style:normal;font-variant:normal;font-weight:normal;font-stretch:normal;line-height:0%;font-family:'DejaVu Sans';-inkscape-font-specification:'DejaVu Sans';text-align:center;writing-mode:lr-tb;text-anchor:middle;fill:#000000;fill-opacity:1;stroke:none;stroke-width:1px;stroke-linecap:butt;stroke-linejoin:miter;stroke-opacity:1"
         x="332.78125"
         y="235.37749"
         id="text2547"><tspan
           sodipodi:role="line"
           id="tspan2549"
           x="332.78125"
           y="235.37749"
           style="font-size:16px;line-height:1.25">Scorpio</tspan></text>
    </switch>
  </g>
</svg>
