<?xml version="1.0" encoding="UTF-8"?>
<!-- Created with Inkscape (http://www.inkscape.org/) -->
<svg width="13.155mm" height="8.632mm" version="1.1" viewBox="0 0 13.155 8.632" xmlns="http://www.w3.org/2000/svg">
 <g transform="translate(-93.733 -120.59)">
  <path d="m98.173 123.93-0.95911-1.6536-2.8608 1.6536-0.62012-1.0666 3.9439-2.2738 0.95084 1.6536 2.8691-1.6536 0.95084 1.6536 2.8691-1.6536 1.571 2.7202-1.0749 0.62012-0.95911-1.6536-2.8608 1.6536-0.95912-1.6536-2.8608 1.6536m0 5.2917-0.95911-1.6536-2.8608 1.6536-0.62012-1.0666 3.9439-2.2738 0.95084 1.6536 2.8691-1.6536 0.95084 1.6536 2.8691-1.6536 1.571 2.7202-1.0749 0.62012-0.95911-1.6536-2.8608 1.6536-0.95912-1.6536-2.8608 1.6536"/>
 </g>
</svg>
