<?xml version="1.0" encoding="UTF-8"?>
<!-- Created with Inkscape (http://www.inkscape.org/) -->
<svg width="5.4901mm" height="5.2418mm" version="1.1" viewBox="0 0 5.4901 5.2418" xmlns="http://www.w3.org/2000/svg">
 <g transform="translate(-20.054 -95.173)">
  <path d="m22.54 100.42v-0.41728c-2e-6 -0.32876-0.07127-0.91502-0.21381-1.7588-0.06438-0.39773-0.17013-0.81156-0.31727-1.2415-0.14944-0.43681-0.30578-0.77937-0.469-1.0277-0.12645-0.18852-0.27704-0.28278-0.45176-0.28278-0.19772 5e-6 -0.33566 0.07587-0.41383 0.2276-0.07127 0.14025-0.10691 0.29313-0.1069 0.45866-1e-6 0.34946 0.1253 0.66558 0.37589 0.94836h-0.58626c-0.20232-0.31037-0.30347-0.63798-0.30347-0.98284 0-0.36094 0.09656-0.64373 0.28968-0.84835 0.20002-0.21151 0.44256-0.31726 0.72764-0.31727 0.36784 6e-6 0.65522 0.15174 0.86214 0.45521 0.2345 0.34256 0.42992 0.75869 0.58626 1.2484 0.11035 0.35635 0.20346 0.75064 0.27933 1.1829 0.07587-0.43222 0.16898-0.8265 0.27933-1.1829 0.14714-0.4782 0.34255-0.89432 0.58626-1.2484 0.20691-0.30347 0.49429-0.4552 0.86214-0.45521 0.28508 6e-6 0.52762 0.10576 0.72764 0.31727 0.19311 0.20462 0.28967 0.4874 0.28968 0.84835-5e-6 0.34486-0.10116 0.67247-0.30347 0.98284h-0.58626c0.25059-0.28278 0.37589-0.5989 0.37589-0.94836-5e-6 -0.16553-0.03564-0.31841-0.1069-0.45866-0.07817-0.15173-0.21612-0.2276-0.41383-0.2276-0.17473 5e-6 -0.32532 0.09427-0.45176 0.28278-0.16324 0.2483-0.31957 0.59086-0.469 1.0277-0.14714 0.42992-0.2529 0.84375-0.31727 1.2415-0.14254 0.84375-0.21381 1.43-0.21381 1.7588v0.41728h-0.51728"/>
 </g>
</svg>
