<?xml version="1.0" encoding="UTF-8"?>
<!-- Created with Inkscape (http://www.inkscape.org/) -->
<svg width="11.964mm" height="9.5333mm" version="1.1" viewBox="0 0 11.964 9.5333" xml:space="preserve" xmlns="http://www.w3.org/2000/svg"><g transform="translate(-93.616 -120.01)"><g transform="translate(-13.135 35.027)"><path d="m106.75 91.729c0.50161 0.31971 0.98392 0.57878 1.447 0.77721 1.1796 0.51263 2.4887 0.76895 3.9274 0.76894 0.90399 3e-6 1.7611-0.10197 2.5714-0.30592-0.0717-0.06063-0.13781-0.12126-0.19843-0.1819-0.24806-0.25356-0.42996-0.52365-0.54571-0.81029-0.12127-0.29765-0.18191-0.6146-0.1819-0.95085-1e-5 -0.33072 0.0606-0.64492 0.1819-0.94258 0.12677-0.31419 0.30867-0.58428 0.54571-0.81029 0.25906-0.24804 0.5264-0.42994 0.80201-0.5457 0.28662-0.12126 0.60082-0.18189 0.94258-0.1819 0.35828 7e-6 0.67247 0.06064 0.94258 0.1819 0.31969 0.14332 0.58703 0.32522 0.80202 0.5457 0.24803 0.25357 0.42993 0.52366 0.5457 0.81029 0.12126 0.29766 0.18189 0.61185 0.1819 0.94258-1e-5 0.33073-0.0606 0.64768-0.1819 0.95085-0.1323 0.33073-0.34177 0.61461-0.62838 0.85163-0.4024 0.33073-0.86267 0.60634-1.3808 0.82682-1.345 0.57326-2.8112 0.8599-4.3987 0.8599-1.6261 2e-6 -3.0923-0.28663-4.3987-0.8599-0.33624-0.14883-0.66145-0.30592-0.97565-0.47129v-1.4552m9.0206 0.45475c0.14331 0.06064 0.3004 0.09095 0.47129 0.09095 0.17087 4e-6 0.32796-0.03031 0.47129-0.09095 0.14882-0.06614 0.28387-0.15709 0.40514-0.27285 0.11024-0.11024 0.20119-0.24529 0.27286-0.40514 0.0606-0.14882 0.0909-0.30868 0.0909-0.47956-1e-5 -0.16536-0.0303-0.32246-0.0909-0.47129-0.0606-0.14331-0.1516-0.27836-0.27286-0.40514-0.10474-0.10472-0.23979-0.19568-0.40514-0.27285-0.14333-0.06063-0.30042-0.09094-0.47129-0.09095-0.17089 7e-6 -0.32798 0.03032-0.47129 0.09095-0.14884 0.06615-0.28388 0.1571-0.40514 0.27285-0.11025 0.11025-0.2012 0.2453-0.27285 0.40514-0.0607 0.14883-0.091 0.30593-0.091 0.47129-1e-5 0.17088 0.0303 0.33073 0.091 0.47956 0.0606 0.14332 0.15157 0.27837 0.27285 0.40514 0.10472 0.10474 0.23977 0.19568 0.40514 0.27285m2.9435-4.4152c-0.50162-0.3197-0.98393-0.57877-1.4469-0.77721-1.1796-0.51262-2.4887-0.76894-3.9274-0.76894-0.904 9e-6 -1.7611 0.10198-2.5714 0.30592 0.0717 0.06064 0.1378 0.12128 0.19844 0.1819 0.24804 0.25357 0.42994 0.52366 0.5457 0.81029 0.12127 0.29766 0.1819 0.61461 0.1819 0.95085 0 0.33074-0.0606 0.64493-0.1819 0.94258-0.12678 0.3142-0.30868 0.58429-0.5457 0.81029-0.25907 0.24805-0.52642 0.42995-0.80202 0.5457-0.28663 0.12127-0.60082 0.1819-0.94257 0.1819-0.3583 4e-6 -0.67249-0.06063-0.94258-0.1819-0.31971-0.14331-0.58705-0.32521-0.80202-0.5457-0.24805-0.25355-0.42995-0.52365-0.54571-0.81029-0.12126-0.29765-0.1819-0.61184-0.1819-0.94258 0-0.33072 0.0606-0.64767 0.1819-0.95085 0.1323-0.33072 0.34176-0.6146 0.62839-0.85163 0.40239-0.33072 0.86265-0.60633 1.3808-0.82682 1.345-0.57325 2.8112-0.85988 4.3987-0.8599 1.6261 1.1e-5 3.0923 0.28664 4.3987 0.8599 0.33623 0.14884 0.66145 0.30593 0.97565 0.47129v1.4552m-9.0206-0.45475c-0.14332-0.06063-0.30041-0.09094-0.47128-0.09095-0.17089 9e-6 -0.32798 0.03033-0.4713 0.09095-0.14883 0.06615-0.28387 0.1571-0.40514 0.27285-0.11024 0.11025-0.20119 0.2453-0.27285 0.40514-0.0606 0.14884-0.0909 0.30869-0.0909 0.47956 0 0.16537 0.0303 0.32247 0.0909 0.47129 0.0606 0.14332 0.15158 0.27837 0.27285 0.40514 0.10473 0.10474 0.23978 0.19569 0.40514 0.27285 0.14332 0.06064 0.30041 0.09096 0.4713 0.09095 0.17087 6e-6 0.32796-0.03031 0.47128-0.09095 0.14883-0.06614 0.28388-0.15709 0.40515-0.27285 0.11023-0.11024 0.20118-0.24528 0.27285-0.40514 0.0606-0.14882 0.0909-0.30592 0.0909-0.47129 0-0.17087-0.0303-0.33072-0.0909-0.47956-0.0606-0.14331-0.15159-0.27836-0.27285-0.40514-0.10474-0.10472-0.23979-0.19567-0.40515-0.27285"/></g></g></svg>
