<?xml version="1.0" encoding="UTF-8"?>
<!-- Created with Inkscape (http://www.inkscape.org/) -->
<svg width="12.89mm" height="12.807mm" version="1.1" viewBox="0 0 12.89 12.807" xmlns="http://www.w3.org/2000/svg">
 <g transform="translate(-101.19 -119.91)">
  <path d="m107.99 128.8c-0.0992-0.14882-0.19293-0.30592-0.28112-0.47129-0.44649-0.83784-0.66973-1.7611-0.66972-2.7698v-0.69454c-1e-5 -0.98115-0.0579-1.7225-0.17364-2.2242-0.17639-0.77169-0.39412-1.1575-0.65318-1.1576-0.26459 1e-5 -0.63115 0.49335-1.0997 1.48-0.36932 0.77722-0.55397 1.604-0.55397 2.4805v2.0753h-1.2402v-2.6541c-1e-5 -0.97564-0.0717-1.717-0.21498-2.2242-0.22049-0.77169-0.6587-1.1575-1.3146-1.1576h-0.59531v-1.571h0.69453c0.83233 2e-5 1.469 0.37484 1.91 1.1245 0.24253 0.41343 0.40514 0.82133 0.48783 1.2237 0.16536-0.49057 0.38584-0.915 0.66146-1.2733 0.55672-0.71656 1.039-1.0748 1.4469-1.0749 0.39135 2e-5 0.80752 0.37484 1.2485 1.1245 0.23701 0.39689 0.38584 0.80479 0.44648 1.2237 0.11024 0.7662 0.16536 1.4249 0.16537 1.9761v0.91777c-1e-5 0.78825 0.10472 1.4635 0.31419 2.0257 0.20394-0.44648 0.43545-0.80201 0.69453-1.0666 0.24804-0.25356 0.57877-0.46302 0.99219-0.62839 0.33072-0.13228 0.71381-0.19843 1.1493-0.19844 0.36931 1e-5 0.71106 0.0662 1.0253 0.19844 0.3197 0.1323 0.60908 0.32798 0.86817 0.58705 0.25354 0.25356 0.44922 0.5457 0.58704 0.87643 0.13228 0.32522 0.19842 0.66973 0.19844 1.0335-2e-5 0.35829-0.0662 0.70004-0.19844 1.0253-0.13782 0.33073-0.3335 0.62287-0.58704 0.87643-0.23704 0.23702-0.52642 0.43271-0.86817 0.58704-0.29215 0.1323-0.66147 0.19844-1.1079 0.19844-0.45201 0-0.87644-0.0661-1.2733-0.19844-0.40239-0.13229-0.77446-0.33623-1.1162-0.61185-0.0937 0.24254-0.19293 0.4713-0.29765 0.68627-0.24255 0.48507-0.53193 0.86816-0.86817 1.1493-0.43546 0.3638-0.84061 0.61736-1.2154 0.76068-0.452 0.17639-0.92604 0.26458-1.4221 0.26458h-0.46302v-1.2402h0.46302c0.36931 0 0.6835-0.0579 0.94257-0.17364 0.31971-0.1378 0.58153-0.30316 0.78549-0.49609 0.2315-0.20946 0.42443-0.45475 0.57877-0.73587 0.17638-0.3197 0.36104-0.74414 0.55397-1.2733m1.4056-0.32246c0.41341 0.452 0.81304 0.73312 1.1989 0.84336 0.24803 0.0717 0.49332 0.10749 0.73587 0.10749 0.25906 0 0.46852-0.0358 0.62838-0.10749 0.17638-0.0772 0.33348-0.1819 0.47129-0.31419 0.13228-0.13229 0.23977-0.28939 0.32246-0.47129 0.0717-0.15985 0.10748-0.34451 0.10749-0.55397-1e-5 -0.19844-0.0358-0.38585-0.10749-0.56224-0.0661-0.16536-0.17364-0.32246-0.32246-0.47129-0.13781-0.13229-0.29491-0.23702-0.47129-0.3142-0.16537-0.0717-0.34727-0.10748-0.5457-0.10748-0.18742 0-0.3831 0.0358-0.58704 0.10748-0.22601 0.0827-0.39689 0.18743-0.51263 0.3142-0.39138 0.44098-0.6973 0.95085-0.91778 1.5296"/>
 </g>
</svg>
