<?xml version="1.0" encoding="UTF-8"?>
<!-- Created with Inkscape (http://www.inkscape.org/) -->
<svg width="10.236mm" height="12.807mm" version="1.1" viewBox="0 0 10.236 12.807" xml:space="preserve" xmlns="http://www.w3.org/2000/svg"><g transform="translate(-29.544 -199.13)"><g transform="translate(-47.068 82.459)"><path d="m83.706 126.64c-0.04962 0.19292-0.07442 0.35278-0.07441 0.47955-9e-6 0.19293 0.0248 0.35003 0.07441 0.47129 0.06614 0.14332 0.14331 0.25632 0.23151 0.339 0.09921 0.0937 0.20945 0.16812 0.33073 0.22324 0.12126 0.0551 0.30867 0.0827 0.56224 0.0827 0.22599 0 0.42442-0.0386 0.59531-0.11575 0.21496-0.0937 0.39686-0.21222 0.5457-0.35553l0.87643 0.87643c-0.24255 0.23151-0.56225 0.44097-0.95912 0.62838-0.28664 0.13781-0.63942 0.20671-1.0583 0.20671-0.42445 0-0.7662-0.0579-1.0253-0.17363-0.29767-0.1323-0.54571-0.29766-0.74414-0.4961-0.2205-0.22049-0.38586-0.46578-0.49609-0.73587-0.11025-0.27561-0.16537-0.59256-0.16536-0.95085-7e-6 -0.39136 0.05787-0.73311 0.17363-1.0253 0.41892-1.0308 0.82681-1.808 1.2237-2.3316 0.49608-0.65594 0.87918-1.3532 1.1493-2.0919 0.12126-0.32521 0.18189-0.69452 0.1819-1.1079-1e-5 -0.44648-0.06064-0.81855-0.1819-1.1162-0.11576-0.28663-0.29767-0.55672-0.5457-0.81029-0.21498-0.22048-0.48232-0.40238-0.80202-0.5457-0.2701-0.12126-0.5843-0.18189-0.94258-0.1819-0.34176 1e-5 -0.65595 0.0606-0.94258 0.1819-0.27561 0.11576-0.54295 0.29766-0.80202 0.5457-0.23703 0.22601-0.41893 0.4961-0.5457 0.81029-0.12127 0.29766-0.18191 0.61461-0.1819 0.95084-6e-6 0.3583 0.06063 0.67249 0.1819 0.94258 0.14882 0.32522 0.36104 0.73312 0.63665 1.2237 0.36931 0.64493 0.55396 1.2568 0.55397 1.8356-7e-6 0.33073-0.06064 0.64492-0.1819 0.94257-0.11576 0.28664-0.29766 0.55673-0.5457 0.81029-0.21498 0.22049-0.48232 0.40239-0.80202 0.5457-0.2701 0.12127-0.58429 0.1819-0.94258 0.1819-0.34176 0-0.65595-0.0606-0.94258-0.1819-0.27561-0.11575-0.54295-0.29765-0.80202-0.5457-0.23702-0.226-0.41893-0.49609-0.5457-0.81029-0.12127-0.29765-0.1819-0.61184-0.1819-0.94257-2e-6 -0.33624 0.06063-0.65319 0.1819-0.95085 0.11575-0.28663 0.29765-0.55672 0.5457-0.81029 0.21497-0.22048 0.48231-0.40238 0.80202-0.5457 0.27009-0.12126 0.58428-0.1819 0.94258-0.1819h0.14056c-0.18742-0.42443-0.28112-0.92603-0.28112-1.5048-5e-6 -0.53467 0.09095-1.0142 0.27285-1.4387 0.19843-0.46301 0.47128-0.86815 0.81856-1.2154 0.34726-0.34726 0.74965-0.61735 1.2072-0.81029 0.42994-0.18189 0.90123-0.27284 1.4139-0.27285 0.54018 1e-5 1.0115 0.091 1.4139 0.27285 0.47955 0.21499 0.88193 0.48508 1.2072 0.81029 0.36379 0.36381 0.63664 0.76896 0.81856 1.2154 0.18189 0.44649 0.27284 0.98117 0.27285 1.604-1.2e-5 0.61736-0.09096 1.1438-0.27285 1.5792-0.34176 0.83234-0.76344 1.5985-1.265 2.2986-0.56776 0.81028-0.94259 1.5406-1.1245 2.1911m-4.1507-3.3982c-0.14332-0.0606-0.30042-0.0909-0.47129-0.0909-0.17088 1e-5 -0.32798 0.0303-0.47129 0.0909-0.14883 0.0662-0.28388 0.15711-0.40514 0.27286-0.12127 0.12678-0.21222 0.26183-0.27285 0.40514-0.06064 0.14883-0.09095 0.30868-0.09095 0.47956-4e-6 0.16536 0.03031 0.32246 0.09095 0.47129 0.06063 0.14331 0.15158 0.27836 0.27285 0.40514 0.12126 0.11576 0.25631 0.20671 0.40514 0.27285 0.14331 0.0606 0.30041 0.091 0.47129 0.091 0.17087 0 0.32797-0.0303 0.47129-0.091 0.14882-0.0661 0.28387-0.15709 0.40514-0.27285 0.12126-0.12678 0.21221-0.26183 0.27285-0.40514 0.06063-0.14883 0.09094-0.30593 0.09095-0.47129-5e-6 -0.17088-0.03032-0.33073-0.09095-0.47956-0.06064-0.14331-0.15159-0.27836-0.27285-0.40514-0.12127-0.11575-0.25632-0.2067-0.40514-0.27286"/></g></g></svg>
