<?xml version="1.0" encoding="UTF-8"?>
<!-- Created with Inkscape (http://www.inkscape.org/) -->
<svg width="12.336mm" height="11.22mm" version="1.1" viewBox="0 0 12.336 11.22" xml:space="preserve" xmlns="http://www.w3.org/2000/svg"><g transform="translate(-66.44 -219.96)"><g transform="translate(-19.338 60.568)"><path d="m90.499 166.89h-4.7212v-1.2402h2.8443c-0.19844-0.25355-0.3638-0.52916-0.49609-0.82682-0.20395-0.46853-0.30593-0.96462-0.30592-1.4883-3e-6 -0.54019 0.10197-1.0446 0.30592-1.5131 0.21497-0.48506 0.51814-0.91225 0.9095-1.2816 0.39136-0.36931 0.83784-0.65594 1.3395-0.8599 0.47955-0.19292 1.0032-0.28938 1.571-0.28939 0.5953 1e-5 1.119 0.0965 1.571 0.28939 0.52364 0.22601 0.97013 0.51264 1.3395 0.8599 0.39135 0.36932 0.69452 0.79651 0.9095 1.2816 0.20394 0.46854 0.30591 0.9729 0.30592 1.5131-1.1e-5 0.52366-0.10199 1.0198-0.30592 1.4883-0.1323 0.29766-0.29767 0.57327-0.49609 0.82682h2.8443v1.2402h-4.7294v-1.2402c0.20945-0.11575 0.40789-0.25631 0.59531-0.42168 0.27009-0.23701 0.4823-0.52916 0.63665-0.87643 0.14331-0.32521 0.21496-0.66696 0.21497-1.0253-1e-5 -0.3638-0.07167-0.7083-0.21497-1.0335-0.14884-0.32521-0.36106-0.61735-0.63665-0.87643-0.25908-0.23702-0.57052-0.4327-0.93431-0.58705-0.3142-0.13228-0.68076-0.19842-1.0997-0.19843-0.39688 1e-5 -0.76344 0.0661-1.0997 0.19843-0.34727 0.13782-0.65871 0.3335-0.93431 0.58705-0.27561 0.25908-0.48783 0.55122-0.63665 0.87643-0.14332 0.32523-0.21498 0.66973-0.21497 1.0335-5e-6 0.3583 0.07166 0.70005 0.21497 1.0253 0.14882 0.32522 0.36104 0.61736 0.63665 0.87643 0.17087 0.15986 0.36655 0.30042 0.58704 0.42168v1.2402m-4.7212 3.7207v-1.2402h12.336v1.2402h-12.336"/></g></g></svg>
