<?xml version="1.0" encoding="UTF-8"?>
<!-- Created with Inkscape (http://www.inkscape.org/) -->
<svg width="10.501mm" height="12.344mm" version="1.1" viewBox="0 0 10.501 12.344" xmlns="http://www.w3.org/2000/svg">
 <g transform="translate(-83.03 -116.78)">
  <path d="m89.579 123.57h-2.5962c-0.0662 1.0914-0.2949 2.1084-0.68626 3.051-0.35829 0.86541-0.87644 1.6977-1.5544 2.497h-1.7115c1.0087-0.98116 1.7143-1.9734 2.1167-2.9766 0.33072-0.8158 0.5264-1.6729 0.58704-2.5714h-2.4557v-1.2402h2.4557c-0.0606-0.89848-0.25632-1.7556-0.58704-2.5714-0.40791-1.0032-1.1135-1.9982-2.1167-2.9848h1.7115c0.67248 0.79927 1.1906 1.6344 1.5544 2.5053 0.39687 0.94258 0.62562 1.9596 0.68626 3.051h2.5962c0.0606-1.0914 0.28938-2.1084 0.68626-3.051 0.36379-0.87091 0.88193-1.706 1.5544-2.5053h1.7115c-1.0032 0.98668-1.7088 1.9816-2.1167 2.9848-0.33074 0.8158-0.52642 1.6729-0.58704 2.5714h2.373v1.2402h-2.373c0.0606 0.89848 0.2563 1.7556 0.58704 2.5714 0.40238 1.0032 1.1079 1.9954 2.1167 2.9766h-1.7115c-0.67801-0.79926-1.1962-1.6316-1.5544-2.497-0.39137-0.95912-0.62013-1.9761-0.68626-3.051"/>
 </g>
</svg>
