<?xml version="1.0" encoding="UTF-8"?>
<!-- Created with Inkscape (http://www.inkscape.org/) -->
<svg width="13.428mm" height="16.007mm" version="1.1" viewBox="0 0 13.428 16.007" xmlns="http://www.w3.org/2000/svg">
 <g transform="translate(-128.28 -159.26)">
  <path d="m139.48 174.18c-0.42445 0-0.7662-0.0579-1.0253-0.17363-0.29767-0.1323-0.54572-0.29766-0.74414-0.49609-0.2205-0.22049-0.38587-0.46578-0.4961-0.73588-0.11025-0.27561-0.16537-0.59531-0.16536-0.95911v-7.6068c-1e-5 -0.98116-0.0579-1.7225-0.17364-2.2242-0.17639-0.77169-0.39412-1.1575-0.65319-1.1576-0.26459 1e-5 -0.63115 0.49335-1.0997 1.48-0.36932 0.77723-0.55398 1.604-0.55397 2.4805v7.0363h-1.2402v-7.615c0-0.97565-0.0579-1.717-0.17363-2.2242-0.17088-0.77169-0.38861-1.1575-0.65319-1.1576-0.26459 1e-5 -0.63114 0.49335-1.0997 1.48-0.36932 0.77723-0.55398 1.604-0.55398 2.4805v7.0363h-1.2402v-7.615c0-1.152-0.14883-2.1745-0.44648-3.0675-0.17088-0.51262-0.46302-1.0308-0.87644-1.5544h1.2733c0.21497 0.21498 0.40514 0.47957 0.57051 0.79375 0.18741 0.36381 0.33624 0.77171 0.44648 1.2237 0.16537-0.49058 0.38585-0.91501 0.66146-1.2733 0.55672-0.71657 1.0115-1.0749 1.3643-1.0749 0.39136 1e-5 0.80752 0.37484 1.2485 1.1245 0.17087 0.28664 0.3197 0.69454 0.44649 1.2237 0.16536-0.49058 0.38584-0.91501 0.66145-1.2733 0.55673-0.71657 1.039-1.0749 1.4469-1.0749 0.39136 1e-5 0.80753 0.37484 1.2485 1.1245 0.23701 0.39688 0.38584 0.80478 0.44648 1.2237 0.11024 0.76619 0.16536 1.4249 0.16537 1.9761v8.2434c-1e-5 0.20946 0.0248 0.36656 0.0744 0.47129 0.0661 0.14331 0.14331 0.25631 0.23151 0.33899 0.0992 0.0937 0.20945 0.16812 0.33073 0.22325 0.12126 0.0551 0.30867 0.0827 0.56224 0.0827h0.47956v-1.0749l1.7694 1.695-1.7694 1.7033v-1.0831h-0.46302"/>
  <switch transform="matrix(.26458 0 0 .26458 46.923 119.13)" fill="#000000" font-family="'DejaVu Sans'" font-size="16px" stroke-width="1px" text-align="center" text-anchor="middle" style="line-height:125%">
   <text id="text2547-bs" x="332.78125" y="235.37749" text-align="center" style="line-height:0%" systemLanguage="bs" xml:space="preserve"><tspan id="tspan2549-bs" x="332.78125" y="235.37749" font-size="16px" style="line-height:1.25">Škorpion</tspan></text>
   <text id="text2547-es" x="332.78125" y="235.37749" text-align="center" style="line-height:0%" systemLanguage="es" xml:space="preserve"><tspan id="tspan2549-es" x="332.78125" y="235.37749" font-size="16px" style="line-height:1.25">Escorpio</tspan></text>
  </switch>
 </g>
</svg>
