<?xml version="1.0" encoding="UTF-8"?>
<!-- Created with Inkscape (http://www.inkscape.org/) -->
<svg width="12.981mm" height="12.617mm" version="1.1" viewBox="0 0 12.981 12.617" xml:space="preserve" xmlns="http://www.w3.org/2000/svg"><g transform="translate(-108.78 -87.859)"><g transform="translate(23.351 12.405)"><path d="m88.102 78.48c-0.14883-0.35277-0.36105-0.66696-0.63665-0.94258-0.25356-0.25355-0.565-0.46301-0.93431-0.62838-0.31971-0.1433-0.68626-0.21496-1.0997-0.21497v-1.2402c0.56775 1.2e-5 1.0914 0.10199 1.571 0.30592 0.5016 0.21499 0.94809 0.5154 1.3395 0.90124 0.39687 0.39137 0.70004 0.84061 0.9095 1.3477 0.14882 0.35279 0.36104 0.66698 0.63665 0.94258 0.25355 0.25357 0.56499 0.46303 0.93431 0.62838 0.3197 0.14332 0.68626 0.21498 1.0997 0.21497 0.39687 8e-6 0.76343-0.07165 1.0997-0.21497 0.35277-0.14882 0.6642-0.35828 0.93431-0.62838 0.2756-0.2756 0.48782-0.58979 0.63665-0.94258 0.20945-0.50711 0.51262-0.95635 0.9095-1.3477 0.39135-0.38584 0.83784-0.68625 1.3395-0.90124 0.47954-0.20394 1.0032-0.30591 1.571-0.30592v1.2402c-0.41342 1.1e-5 -0.77998 0.07167-1.0997 0.21497-0.36933 0.16538-0.68076 0.37484-0.93431 0.62838-0.27562 0.27562-0.48784 0.58981-0.63665 0.94258-0.20947 0.50162-0.51264 0.95086-0.9095 1.3477-0.19294 0.19293-0.44374 0.38861-0.75241 0.58704 0.30867 0.19844 0.55947 0.39413 0.75241 0.58704 0.39686 0.39688 0.70003 0.84612 0.9095 1.3477 0.20394 0.4961 0.30591 1.028 0.30592 1.5958-1e-5 0.55122-0.10199 1.0749-0.30592 1.571-0.21498 0.50712-0.51815 0.95636-0.9095 1.3477-0.39137 0.38585-0.83786 0.68626-1.3395 0.90124-0.47956 0.20395-1.0032 0.30592-1.571 0.30592-0.59532 0-1.119-0.10198-1.571-0.30592-0.52366-0.23702-0.97014-0.53744-1.3395-0.90124-0.39137-0.39136-0.69453-0.8406-0.9095-1.3477-0.20395-0.49609-0.30593-1.0197-0.30592-1.571-3e-6 -0.56775 0.10197-1.0997 0.30592-1.5958 0.22048-0.53467 0.52365-0.98391 0.9095-1.3477 0.23702-0.22599 0.49058-0.42167 0.76068-0.58704-0.27561-0.16536-0.52917-0.36104-0.76068-0.58704-0.38586-0.37482-0.68902-0.82406-0.9095-1.3477m4.9196 2.7699c-0.33625-0.14331-0.70281-0.21497-1.0997-0.21497-0.39688 7e-6 -0.76344 0.07166-1.0997 0.21497-0.34176 0.15435-0.6532 0.36381-0.93431 0.62839-0.28664 0.29766-0.49885 0.61185-0.63665 0.94258-0.14332 0.34727-0.21498 0.7221-0.21497 1.1245-5e-6 0.38585 0.07165 0.75241 0.21497 1.0997 0.1378 0.33073 0.35002 0.64492 0.63665 0.94258 0.28111 0.26458 0.59255 0.47405 0.93431 0.62839 0.33624 0.14332 0.70279 0.21498 1.0997 0.21497 0.39687 1e-6 0.76343-0.07166 1.0997-0.21497 0.34174-0.15434 0.65318-0.3638 0.93431-0.62839 0.28662-0.29765 0.49884-0.61185 0.63665-0.94258 0.14331-0.34726 0.21496-0.71382 0.21497-1.0997-1.1e-5 -0.40238-0.07167-0.77721-0.21497-1.1245-0.13781-0.33072-0.35003-0.64492-0.63665-0.94258-0.28113-0.26458-0.59257-0.47404-0.93431-0.62839"/></g></g></svg>
