<?xml version="1.0" encoding="UTF-8"?>
<!-- Created with Inkscape (http://www.inkscape.org/) -->
<svg width="13.138mm" height="15.776mm" version="1.1" viewBox="0 0 13.138 15.776" xmlns="http://www.w3.org/2000/svg">
 <g transform="translate(-54.728 -159.67)">
  <path d="m64.733 171.65c0.61184-0.61736 1.0804-1.3202 1.4056-2.1084 0.3252-0.79375 0.48781-1.6316 0.48782-2.5135-1e-5 -0.76619-0.04686-1.3229-0.14056-1.6702-0.14333-0.53467-0.34177-0.80202-0.59531-0.80202-0.14333 0-0.34452 0.25908-0.60358 0.77721-0.36932 0.73864-0.55398 1.5655-0.55397 2.4805v3.8365m-0.99219 2.282c-0.23703 0.12678-0.47957 0.24529-0.7276 0.35553-0.61186 0.2701-1.2788 0.44373-2.0009 0.5209v-1.2485c0.5457-0.0772 1.0556-0.21773 1.5296-0.42168 0.34175-0.14883 0.66421-0.31971 0.96738-0.51263-0.01103-0.12678-0.01654-0.25907-0.01654-0.39688v-7.6068c-1.1e-5 -0.98115-0.05789-1.7225-0.17364-2.2242-0.1764-0.77169-0.39413-1.1575-0.65319-1.1576-0.26459 1e-5 -0.63115 0.49334-1.0997 1.48-0.36932 0.77722-0.55398 1.604-0.55397 2.4805v7.0363h-1.2402v-7.615c-8e-6 -0.97564-0.05789-1.717-0.17364-2.2242-0.17088-0.77169-0.38861-1.1575-0.65319-1.1576-0.26459 1e-5 -0.63115 0.49334-1.0997 1.48-0.36932 0.77722-0.55397 1.604-0.55397 2.4805v7.0363h-1.2402v-7.615c-3e-6 -1.152-0.14883-2.1745-0.44648-3.0675-0.17088-0.51262-0.46302-1.0308-0.87643-1.5544h1.2733c0.21497 0.21499 0.40514 0.47957 0.5705 0.79375 0.18741 0.36382 0.33624 0.77172 0.44648 1.2237 0.16536-0.49057 0.38585-0.91501 0.66146-1.2733 0.55673-0.71657 1.0115-1.0748 1.3643-1.0749 0.39136 2e-5 0.80752 0.37484 1.2485 1.1245 0.17087 0.28665 0.3197 0.69454 0.44648 1.2237 0.16536-0.49057 0.38584-0.91501 0.66146-1.2733 0.55672-0.71657 1.039-1.0748 1.4469-1.0749 0.39135 2e-5 0.80752 0.37484 1.2485 1.1245 0.23701 0.39689 0.38584 0.80479 0.44648 1.2237 0.08267 0.57879 0.1378 1.2375 0.16536 1.9761 0.11023-0.22599 0.24804-0.43821 0.41341-0.63666 0.40238-0.47954 0.75516-0.71932 1.0583-0.71933 0.44096 1e-5 0.82406 0.43547 1.1493 1.3064 0.35828 0.95912 0.53742 1.9871 0.53743 3.084-1.4e-5 1.0749-0.19294 2.0698-0.57878 2.9848-0.41894 0.99219-0.99496 1.8466-1.7281 2.5632-0.23152 0.226-0.47406 0.43822-0.7276 0.63665 0.06062 0.25907 0.14055 0.50988 0.23978 0.75241 0.21496 0.52365 0.54845 1.017 1.0005 1.48h-1.604c-0.24806-0.39687-0.42996-0.73311-0.5457-1.0087-0.06616-0.16537-0.12679-0.33349-0.1819-0.50436"/>
 </g>
</svg>
